<?xml version="1.0" standalone="no"?><!DOCTYPE svg PUBLIC "-//W3C//DTD SVG 1.1//EN" "http://www.w3.org/Graphics/SVG/1.1/DTD/svg11.dtd"><svg t="1514337874603" class="icon" style="" viewBox="0 0 1024 1024" version="1.1" xmlns="http://www.w3.org/2000/svg" p-id="7115" xmlns:xlink="http://www.w3.org/1999/xlink" width="200" height="200"><defs><style type="text/css"></style></defs><path d="M512 0c282.624 0 512 229.376 512 512s-229.376 512-512 512S0 794.624 0 512 229.376 0 512 0z" fill="#E4EAEC" p-id="7116"></path><path d="M139.264 863.232c89.088-70.656 225.28-115.712 377.856-115.712 149.504 0 282.624 43.008 371.712 110.592-191.488 207.872-515.072 222.208-722.944 30.72-9.216-8.192-18.432-16.384-26.624-25.6z" fill="#40c4ff" p-id="7117"></path><path d="M604.16 648.192V727.04c25.6 13.312 40.96 30.72 40.96 51.2 0 39.936-61.44 71.68-138.24 71.68S368.64 818.176 368.64 778.24c0-19.456 15.36-37.888 40.96-51.2v-96.256C346.112 578.56 305.152 501.76 296.96 419.84c-7.168-137.216 96.256-257.024 219.136-256 122.88-1.024 226.304 117.76 220.16 256-5.12 96.256-61.44 184.32-132.096 228.352z" fill="#ffe4c8" p-id="7118"></path><path d="M747.52 360.448v3.072c0 16.384-3.072 31.744-9.216 47.104-2.048 0-3.072 1.024-5.12 1.024-10.24 20.48-26.624 36.864-47.104 47.104 0 2.048-1.024 4.096-1.024 7.168v3.072c-6.144 4.096-13.312 6.144-20.48 8.192v-61.44c-41.984 23.552-90.112 33.792-137.216 30.72-69.632-11.264-132.096-52.224-169.984-111.616v152.576c-7.168-2.048-14.336-5.12-20.48-9.216v-3.072c-1.024-25.6-18.432-47.104-43.008-53.248-5.12-15.36-8.192-32.768-8.192-49.152-1.024-38.912 15.36-76.8 46.08-101.376C330.752 215.04 412.672 166.912 522.24 163.84c94.208-1.024 173.056 44.032 196.608 109.568 18.432 22.528 28.672 50.176 28.672 79.872v7.168z" fill="#444f6a" p-id="7119"></path></svg>