<?xml version="1.0" encoding="utf-8"?>
<!-- Generator: Adobe Illustrator 19.0.0, SVG Export Plug-In . SVG Version: 6.00 Build 0)  -->
<svg version="1.1" id="图层_1" xmlns="http://www.w3.org/2000/svg" xmlns:xlink="http://www.w3.org/1999/xlink" x="0px" y="0px"
	 viewBox="-197 320.9 200 200" style="enable-background:new -197 320.9 200 200;" xml:space="preserve">
<style type="text/css">
	.st0{clip-path:url(#XMLID_3_);}
	.st1{fill:#5A4146;}
	.st2{fill:#694B4B;}
	.st3{fill:#D29B6E;}
	.st4{fill:#2C4F98;}
	.st5{fill:#3A5CAC;}
	.st6{fill:#F0C087;}
	.st7{fill:#FFCE54;}
	.st8{fill:#EF6570;}
	.st9{fill:#F3797D;}
</style>
<g>
	<defs>
		<path id="XMLID_1_" d="M-97,320.9c55.2,0,100,44.8,100,100s-44.8,100-100,100s-100-44.8-100-100S-152.2,320.9-97,320.9z"/>
	</defs>
	<use xlink:href="#XMLID_1_"  style="overflow:visible;fill:#E4EAEC;"/>
	<clipPath id="XMLID_3_">
		<use xlink:href="#XMLID_1_"  style="overflow:visible;"/>
	</clipPath>
	<g class="st0">
		<path class="st1" d="M-185.3,434v2.2c0,2.7,0.4,5.4,1.3,8l5,15h9.4v-34.6h-6.3C-181,424.6-185.3,428.8-185.3,434z"/>
		<path class="st2" d="M-142.2,440.5l-5.3,18.6l-25.1-22c-3.5,0-6.3-2.8-6.3-6.3c0-5.2,4.2-9.4,9.4-9.4h22c3.5,0,6.3,2.8,6.3,6.3
			v5.9C-141.3,436-141.6,438.3-142.2,440.5z"/>
		<path class="st3" d="M-172.7,469.4h18.8v15.2h-18.8V469.4z"/>
		<path class="st4" d="M-138.7,482.5l-15.2-4.7l-9.4,6.8l-9.4-6.8l-15.2,4.7c-4,1.3-6.8,5.3-6.8,9.9v25.1c0,1.9,1.4,3.4,3.1,3.4
			h56.5c1.7,0,3.1-1.5,3.1-3.4v-25.1C-131.9,487.8-134.6,483.8-138.7,482.5z"/>
		<path class="st5" d="M-160.1,520.9h-6.3l1.6-36.3h3.1L-160.1,520.9z"/>
		<path class="st6" d="M-163.3,472.9c-8.9,0-17.2-8.8-18.4-20.6l-0.5-4c0-1.8,0.7-3.6,1.8-4.9l5.7-6.2c1.2-1.3,2.9-2.1,4.6-2
			c10,0.3,18.9,2.7,23.8,7.9c1.2,1.3,1.8,3,1.8,4.9l-0.5,4.4C-146,463.5-154.2,472.9-163.3,472.9L-163.3,472.9z"/>
		<path class="st5" d="M-182.1,501.2c0-1.8-0.7-3.6-1.8-4.9l-9-9.8c-1.1,1.7-1.7,3.7-1.7,5.9v28.5h12.6
			C-182.1,520.9-182.1,501.2-182.1,501.2z"/>
		<path class="st7" d="M-161.7,491.5h-3.1c-0.9,0-1.6-0.8-1.6-1.7v-5.1h6.3v5.1C-160.1,490.7-160.8,491.5-161.7,491.5z"/>
		<path class="st5" d="M-163.3,484.6l-5.3,4.4c-0.9,0.8-2.2,0.5-2.8-0.6l-4.8-9.5l1.9-3.2c0.4-0.7,1.3-0.8,1.9-0.3
			C-172.3,475.4-163.3,484.6-163.3,484.6z M-163.3,484.6l5.3,4.4c0.9,0.8,2.2,0.5,2.8-0.6l4.8-9.5l-1.9-3.2
			c-0.4-0.7-1.3-0.8-1.9-0.3C-154.2,475.4-163.3,484.6-163.3,484.6z"/>
		<path class="st1" d="M-47,434v2.2c0,2.7,0.4,5.4,1.3,8l5,15h9.4v-34.6h-6.3C-42.8,424.6-47,428.8-47,434z"/>
		<path class="st2" d="M-4,440.5l-5.3,18.6l-25.1-22c-3.5,0-6.3-2.8-6.3-6.3c0-5.2,4.2-9.4,9.4-9.4h22c3.5,0,6.3,2.8,6.3,6.3v5.9
			C-3.1,436-3.4,438.3-4,440.5L-4,440.5z"/>
		<path class="st3" d="M-34.5,469.4h18.8v15.2h-18.8V469.4z"/>
		<path class="st4" d="M-0.5,482.5l-15.2-4.7l-9.4,6.8l-9.4-6.8l-15.2,4.7c-4,1.3-6.8,5.3-6.8,9.9v25.1c0,1.9,1.4,3.4,3.1,3.4H3.2
			c1.7,0,3.1-1.5,3.1-3.4v-25.1C6.4,487.8,3.6,483.8-0.5,482.5L-0.5,482.5z"/>
		<path class="st5" d="M-21.9,520.9h-6.3l1.6-36.3h3.1L-21.9,520.9z"/>
		<path class="st6" d="M-25.1,472.9c-8.9,0-17.2-8.8-18.4-20.6l-0.5-4c0-1.8,0.7-3.6,1.8-4.9l5.7-6.2c1.2-1.3,2.9-2.1,4.6-2
			c10,0.3,18.9,2.7,23.8,7.9c1.2,1.3,1.8,3,1.8,4.9l-0.5,4.4C-7.8,463.5-15.9,472.9-25.1,472.9L-25.1,472.9z"/>
		<path class="st5" d="M-43.9,502.6c0-2.7-1-5.3-2.8-7.3l-8.1-8.8c-1.1,1.7-1.7,3.7-1.7,5.9v25.1c0,1.9,1.4,3.4,3.1,3.4h9.4
			L-43.9,502.6L-43.9,502.6z"/>
		<path class="st7" d="M-23.5,491.5h-3.1c-0.9,0-1.6-0.8-1.6-1.7v-5.1h6.3v5.1C-21.9,490.7-22.6,491.5-23.5,491.5L-23.5,491.5z"/>
		<path class="st5" d="M-25.1,484.6l-5.3,4.4c-0.9,0.8-2.2,0.5-2.8-0.6l-4.8-9.5l1.9-3.2c0.4-0.7,1.3-0.8,1.9-0.3L-25.1,484.6z"/>
		<path class="st5" d="M-25.1,484.6l5.3,4.4c0.9,0.8,2.2,0.5,2.8-0.6l4.8-9.5l-1.9-3.2c-0.4-0.7-1.3-0.8-1.9-0.3L-25.1,484.6z"/>
		<path class="st5" d="M-43.9,502.6c0-2.7-1-5.3-2.8-7.3l-8.1-8.8c-1.1,1.7-1.7,3.7-1.7,5.9v25.1c0,1.9,1.4,3.4,3.1,3.4h9.4
			L-43.9,502.6L-43.9,502.6z"/>
		<path class="st1" d="M-94.2,479.7c20.6,0,39-9.2,45-12.5c1.2-0.7,1.9-2.1,1.7-3.6c-1-6.4-5.9-25.4-8.1-59.3
			c-1.9-27.6-16-44.6-38.6-44.6s-36.7,17-38.6,44.6c-2.3,33.9-7.2,52.9-8.1,59.3c-0.2,1.5,0.5,2.9,1.7,3.6
			C-133.2,470.6-114.7,479.7-94.2,479.7z"/>
		<path class="st2" d="M-49.1,467.2c1.2-0.7,1.9-2.1,1.7-3.6c-1-6.4-5.9-25.4-8.1-59.3c-1.9-27.6-16-44.6-38.6-44.6
			c-1.6,0-3.1,0.1-4.6,0.2c-17.6,1.9-20.2,29-3.3,34.6c0.3,0.1,0.4,0.1,0.4,0.1l6.3,85l0,0C-74.4,480.1-55.3,470.6-49.1,467.2
			L-49.1,467.2z"/>
		<path class="st3" d="M-147.6,517.5V499c0-5.4,2.9-10.4,7.5-12.5l26.5-12.8c2.3-1.1,3.7-3.6,3.7-6.3v-15.1h31.4v15.1
			c0,2.7,1.5,5.2,3.7,6.3l26.5,12.8c4.6,2.2,7.5,7.1,7.5,12.5v18.5c0,1.9-1.4,3.4-3.1,3.4h-100.5
			C-146.2,520.9-147.6,519.4-147.6,517.5z"/>
		<path class="st8" d="M-48.2,486.4l-19.5-9.4c-4.1,11.6-14.3,19.9-26.4,19.9s-22.3-8.3-26.4-19.9l-19.5,9.4
			c-4.6,2.2-7.5,7.1-7.5,12.5v18.5c0,1.9,1.4,3.4,3.1,3.4h100.5c1.7,0,3.1-1.5,3.1-3.4V499C-40.8,493.5-43.7,488.6-48.2,486.4z"/>
		<path class="st6" d="M-65.9,411.1c-5-4.8-16.4-13.3-35.8-16.5c-2.7-0.4-5.4,1-6.6,3.7c-2,4.4-6.2,11.6-14.6,17.8
			c-1.7,1.2-2.6,3.4-2.6,5.6v1.9c4.1,18.8,16,35.5,30.9,35.4c14.8,0.1,28.2-15.5,31.9-35.6v-4.7C-62.7,415.9-63.9,413.1-65.9,411.1
			L-65.9,411.1z"/>
		<path class="st9" d="M-142.9,488.3c-2.9,2.6-4.7,6.5-4.7,10.7v21.9h22V510c0-1.8-0.7-3.6-1.8-4.9L-142.9,488.3z M-45.5,488.3
			c2.9,2.6,4.7,6.5,4.7,10.7v21.9h-22V510c0-1.8,0.7-3.6,1.8-4.9L-45.5,488.3L-45.5,488.3z"/>
		<path class="st5" d="M-6.2,520.9H6.4v-28.5c0-2.2-0.6-4.2-1.7-5.9l-9,9.8c-1.2,1.3-1.8,3-1.8,4.9V520.9L-6.2,520.9z"/>
	</g>
</g>
</svg>
