<?xml version="1.0" encoding="utf-8"?>
<!-- Generator: Adobe Illustrator 19.0.0, SVG Export Plug-In . SVG Version: 6.00 Build 0)  -->
<svg version="1.1" id="icon-school" xmlns="http://www.w3.org/2000/svg" xmlns:xlink="http://www.w3.org/1999/xlink" x="0px" y="0px"
	 viewBox="-197 320.9 200 200" style="enable-background:new -197 320.9 200 200;" xml:space="preserve">
<style type="text/css">
	.st0{clip-path:url(#XMLID_3_);}
	.st1{fill:#F45656;}
	.st2{fill:#BDCCD4;}
	.st3{fill:#F29440;}
	.st4{fill:#808C9B;}
</style>
<g>
	<defs>
		<path id="XMLID_1_" d="M-97,320.9c55.2,0,100,44.8,100,100s-44.8,100-100,100s-100-44.8-100-100S-152.2,320.9-97,320.9z"/>
	</defs>
	<use xlink:href="#XMLID_1_"  style="overflow:visible;fill:#E4EAEC;"/>
	<clipPath id="XMLID_3_">
		<use xlink:href="#XMLID_1_"  style="overflow:visible;"/>
	</clipPath>
	<g class="st0">
		<path class="st1" d="M-98.6,374.1l0.4-0.2l35.9-16.4l-35.9-13.9l-0.4-0.2V374.1z"/>
		<path class="st2" d="M-17.3,469.9v-37.3h-154v37.3h-23v73h73v-54.2h54.5v54.2H5.7v-73H-17.3z M-171.3,506.5h-17.2v-17.6h17.2
			V506.5z M-139.4,506.5h-17.4v-17.6h17.4V506.5z M-139.2,469.9h-17.6v-17.6h17.6V469.9z M-103.3,469.9h-17.4v-17.6h17.4V469.9z
			 M-67.1,469.9h-17.6v-17.6h17.6V469.9z M-31.6,506.5H-49v-17.6h17.4V506.5z M-30.9,469.9h-17.6v-17.6h17.6V469.9z M0.3,506.5
			h-17.4v-17.6H0.3V506.5z"/>
		<path class="st3" d="M-1.7,432.6l-8.6-34.6h-87.8V374l-0.4,0.2v-30.7l0.4,0.2v-0.7h-7.8V398h-72.4l-8.6,34.6h169.6H-1.7z"/>
		<path class="st4" d="M-121.3,488.6h54.5v54.2h-54.5V488.6z"/>
	</g>
</g>
</svg>
