<?xml version="1.0" encoding="utf-8"?>
<!-- Generator: Adobe Illustrator 19.0.0, SVG Export Plug-In . SVG Version: 6.00 Build 0)  -->
<svg version="1.1" id="图层_1" xmlns="http://www.w3.org/2000/svg" xmlns:xlink="http://www.w3.org/1999/xlink" x="0px" y="0px"
	 viewBox="-197 320.9 200 200" style="enable-background:new -197 320.9 200 200;" xml:space="preserve">
<style type="text/css">
	.st0{clip-path:url(#XMLID_3_);}
	.st1{fill:#FFFFFF;}
	.st2{fill:#E1E6F7;}
	.st3{fill:#FFDDB8;}
	.st4{fill:#E5C6A5;}
	.st5{fill:#C74A4A;}
	.st6{fill:#E25656;}
	.st7{fill:#F5D4B1;}
	.st8{fill:#333333;}
</style>
<g>
	<defs>
		<path id="XMLID_1_" d="M-97,320.9c55.2,0,100,44.8,100,100s-44.8,100-100,100s-100-44.8-100-100S-152.2,320.9-97,320.9z"/>
	</defs>
	<use xlink:href="#XMLID_1_"  style="overflow:visible;fill:#E4EAEC;"/>
	<clipPath id="XMLID_3_">
		<use xlink:href="#XMLID_1_"  style="overflow:visible;"/>
	</clipPath>
	<g class="st0">
		<path class="st1" d="M-96.8,522.2l56-0.5c0,0-2.8-44.9-41.2-51.9c-10.5-0.9-15.1-0.5-15.1-0.5v0.1
			C-97,502.1-96.8,522.2-96.8,522.2z"/>
		<path class="st2" d="M-97.5,522.2l-55.8-0.5c0,0,2.8-45,41-51.9c10.4-0.9,15-0.5,15-0.5v0.1C-97.2,502.1-97.5,522.2-97.5,522.2
			L-97.5,522.2z"/>
		<path class="st3" d="M-118.2,450.3H-79v30.4c0,0-9.7,15.2-19.5,15.2c-9.8,0-19.7-15.2-19.7-15.2S-118.2,450.3-118.2,450.3z"/>
		<path class="st4" d="M-118.2,477.2v-30.4H-79v16.6"/>
		<path class="st5" d="M-117.8,460c3.5,5.9,0.9,14.5,4.2,19.5c3.4,5,10,8.6,15.7,13.9c-7.5,3.5-19.9,1.2-25.4-8.1
			C-128.8,476.1-125.3,463.4-117.8,460z"/>
		<path class="st6" d="M-103,487.1h11.1c2.5,0,4.6,2.1,4.6,4.6l-1.4,5.1c0,2.5-3.3,4.6-5,4.6h-7.5c-1.7,0-5-2.1-5-4.6l-1.4-5.1
			C-107.6,489.2-105.5,487.1-103,487.1L-103,487.1z"/>
		<path class="st6" d="M-98.3,495.9c-3.4,0.6-5.5,5.1-6.5,9.2c-1.3,5.2-2.1,11.5-2.7,16.8c6.8,0,8.7,0,15.7,0.1
			c2.5-5.8,3-13.1-0.1-20.1C-93.5,498.4-95.5,495.4-98.3,495.9L-98.3,495.9z M-78.5,460c-3.5,5.9-0.9,14.5-4.2,19.5
			c-3.4,5-10,8.6-15.7,13.9c7.5,3.5,22.2-1.1,27.7-10.3C-65.2,473.8-71,463.4-78.5,460z"/>
		<path class="st7" d="M-97.1,363.1c-26.7,0-46,21.9-46,49c0,9.1,2.3,24.9,6.3,32.2c8,14.4,33.5,18.1,39.7,18.3
			C-97,436.7-97.1,396.9-97.1,363.1z"/>
		<path class="st3" d="M-96.9,363.1c26.7,0,46.1,21.9,46.1,49c0,9.1-2.3,24.9-6.3,32.2c-8,14.4-33.6,18.1-39.8,18.3
			C-97,436.7-96.9,396.9-96.9,363.1z"/>
		<path class="st8" d="M-85.4,341.9L-95.7,353c0,0-29.7-0.6-45.2,18c-14.3,17.2-6.2,48.6-3.1,51.6c-0.2-1.4,7.5,1.9,6.9-0.5
			c-6.5-23.1,17.1-8.4,34-12.4c23.3-5.6,37.6-15.1,40.5-12.4c7,7.8,6.5,28.1,6.5,28.1s13.3-10.9,12.1-30.9
			c-0.9-13.7-10.3-27.5-17.2-31.8c-6.9-4.3-11.9-6.4-17.7-7.4c1.2-2,1.9-6.9,1.9-6.9l-7.4,4.6L-85.4,341.9L-85.4,341.9z"/>
		<path class="st3" d="M-46.1,410.9c3.1,1.1,4,6.8,2,12.7c-2,6-6.2,10-9.3,8.9c-3.1-1.1-4-6.8-2-12.7
			C-53.4,413.8-49.3,409.8-46.1,410.9z"/>
		<path class="st7" d="M-147.1,411.5c-3.1,1.1-4,6.8-2,12.9c2,6.1,6.2,10.1,9.3,9s4-6.8,2-12.9C-139.9,414.5-144,410.5-147.1,411.5z
			"/>
		<path class="st5" d="M-100.3,496c-2.7,0.7-4.5,5.1-5.3,9.2c-1.1,5.2-1.7,11.4-2.2,16.7c4,0,4.8,0,7.8,0c4.6-6.4,8.1-13.1,7.6-20.4
			C-92.6,497.7-98,495.4-100.3,496z"/>
	</g>
</g>
</svg>
