<?xml version="1.0" encoding="utf-8"?>
<!-- Generator: Adobe Illustrator 19.0.0, SVG Export Plug-In . SVG Version: 6.00 Build 0)  -->
<svg version="1.1" id="图层_1" xmlns="http://www.w3.org/2000/svg" xmlns:xlink="http://www.w3.org/1999/xlink" x="0px" y="0px"
	 viewBox="0 0 78.5 13.3" style="enable-background:new 0 0 78.5 13.3;" xml:space="preserve">
<style type="text/css">
	.st0{fill:#2BBB61;}
</style>
<g>
</g>
<g>
	<path class="st0" d="M0.1,1.7V0.2h3.2v1.4H0.1z M0.1,5.1V3.7h1.1c0.6,0,1,0.1,1.3,0.2C2.7,4,2.8,4.2,2.9,4.3C3,4.5,3.1,4.8,3.1,5.2
		v6c0,0.3,0,0.5,0.1,0.6c0.1,0.1,0.3,0.1,0.5,0.1h0.8v1.4H3.3c-0.5,0-0.9-0.1-1.1-0.2C2,13,1.9,12.8,1.8,12.6
		c-0.1-0.2-0.1-0.4-0.1-0.7V5.8c0-0.3,0-0.5-0.1-0.6C1.4,5.2,1.3,5.1,1,5.1H0.1z M10.4,7v0.7h4.1v1.4h-4.1v4.3H8.9V9.1H5.1V7.7h3.9
		V7H6.6C6.1,7,5.7,6.8,5.4,6.5C5.2,6.3,5,5.7,5,4.9V1.7c0-0.5,0.1-0.8,0.4-1.1c0.3-0.3,0.7-0.4,1.3-0.4h5.6c0.7,0,1.1,0.1,1.4,0.4
		c0.3,0.3,0.4,0.6,0.4,1.1v3.3c0,0.7-0.1,1.2-0.2,1.4C13.8,6.8,13.3,7,12.6,7H10.4z M5.1,13.4V12c0.2-0.1,0.3-0.1,0.3-0.2
		c0-0.1,0.1-0.5,0.2-1l0.1-0.9h1.5L7,10.8c-0.1,1-0.4,1.8-0.7,2.1C6,13.2,5.6,13.4,5.1,13.4z M6.5,2.9h2.4V1.6H7.1
		c-0.3,0-0.4,0-0.5,0.1C6.5,1.8,6.5,1.9,6.5,2.1V2.9z M8.9,5.5V4.3H6.5V5c0,0.2,0,0.3,0.1,0.4c0.1,0.1,0.2,0.1,0.5,0.1H8.9z
		 M10.4,2.9h2.4V2.4c0-0.3,0-0.5-0.1-0.6c-0.1-0.1-0.2-0.2-0.4-0.2h-1.9V2.9z M10.4,5.5h1.8c0.3,0,0.4,0,0.5-0.1
		c0.1-0.1,0.1-0.2,0.1-0.4V4.3h-2.4V5.5z M12.4,9.8h1.4l0.1,1c0.1,0.5,0.1,0.8,0.2,0.9c0,0.1,0.2,0.2,0.3,0.3v1.4
		c-0.5,0-1-0.2-1.3-0.5c-0.2-0.3-0.4-0.6-0.5-1.1c-0.1-0.2-0.1-0.6-0.2-1.1L12.4,9.8z"/>
	<path class="st0" d="M16,13.3V12c0.1,0,0.2-0.1,0.3-0.1c0,0,0.1-0.2,0.1-0.5L16.4,5h1.3l-0.1,6.6c0,0.7-0.3,1.2-0.8,1.5
		C16.7,13.2,16.4,13.3,16,13.3z M16.2,4.1V2.7h2.2V1.6h-2.1V0.3h5.5l0,1.4h-2v1.1l2,0l0,1.4l-2,0v9.2h-1.4V4.1H16.2z M20.4,13.4V5
		h1.2v8.4H20.4z M22.4,13.4v-1.4h3.3v-1.5h-3.1V8.9h3.1V7.5h-3.2V6h7.8v1.4h-3.2v1.5h3.1v1.5h-3.1v1.5h3.3v1.4H22.4z M24,0h4.7
		c0.5,0,0.9,0.1,1.2,0.4c0.2,0.2,0.4,0.5,0.4,0.8v2.4c0,0.3-0.1,0.6-0.3,0.8c-0.3,0.3-0.6,0.5-1,0.5h-4.8c-0.7,0-1.2-0.2-1.4-0.5
		c-0.2-0.2-0.2-0.5-0.2-1l0-2.1c0-0.3,0.1-0.6,0.4-0.9C23.1,0.2,23.5,0,24,0z M24,1.9V3c0,0.3,0.2,0.5,0.5,0.5h3.7
		c0.4,0,0.6-0.2,0.6-0.5V2c0-0.3-0.2-0.5-0.5-0.5h-3.8C24.1,1.5,24,1.6,24,1.9z"/>
	<path class="st0" d="M32.2,10V8.5h11.5V10H32.2z M35,1.2h11.1v1.5H34.8l-0.2,1.3c-0.1,0.3-0.1,0.5-0.1,0.6c0,0.2,0.1,0.3,0.2,0.5
		c0.2,0.2,0.4,0.3,0.7,0.3l0.4,0h7.8c0.9,0,1.6,0.2,2,0.7c0.4,0.4,0.6,0.9,0.6,1.6v3.1c0,0.9-0.2,1.5-0.6,1.9
		c-0.2,0.2-0.5,0.4-0.9,0.5c-0.4,0.1-0.7,0.2-1.1,0.2H37v-1.5h6.5c0.5,0,0.8-0.1,0.9-0.2c0.2-0.2,0.3-0.4,0.3-0.8V8
		c0-0.5-0.1-0.8-0.2-1c-0.2-0.2-0.5-0.3-1-0.3h-7.8c-0.8,0-1.5-0.2-2-0.6c-0.5-0.4-0.7-0.8-0.7-1.5c0-0.1,0-0.4,0.1-0.9l0.6-3.8h1.5
		L35,1.2z"/>
	<path class="st0" d="M48,9.6V8.1l7.9,0l2.3-1.5c0.2-0.1,0.3-0.3,0.3-0.5c0-0.1,0-0.1-0.1-0.1C58.4,6,58.2,6,57.9,6H49l0-1.5h9.5
		c0.7,0,1.2,0.1,1.5,0.4c0.4,0.3,0.6,0.6,0.6,1c0,0.5-0.3,1-0.9,1.4l-1.2,0.8h4v1.4l-4.8,0V11c0,0.7-0.2,1.2-0.6,1.6
		c-0.4,0.5-1,0.7-1.7,0.7h-2.9l0-1.5l2.5,0c0.4,0,0.6-0.1,0.8-0.2c0.2-0.2,0.3-0.4,0.3-0.7V9.6H48z M48,4.1l0-0.9c0-1,0.5-1.7,1.6-2
		l0-1.2H51v1.2h3.5V0L56,0v1.2h3.6V0H61l0,1.2c0.7,0.2,1.1,0.6,1.3,1.1c0.1,0.3,0.2,0.6,0.2,1.1l0,0.7h-1.4V3.5
		c0-0.6-0.4-0.8-1.1-0.8h-9.5c-0.6,0-0.9,0.3-1,0.8l0,0.6H48z"/>
	<path class="st0" d="M64,1.6V0.1h11.6c0.8,0,1.4,0.1,1.8,0.4C78,1,78.3,1.6,78.3,2.5v7.9c0,1-0.1,1.6-0.4,2
		c-0.5,0.6-1.2,0.9-2.2,0.9H64.8v-1.5h10.7l0.5,0c0.3,0,0.5-0.1,0.7-0.3c0.2-0.2,0.2-0.3,0.3-0.5c0-0.1,0-0.2,0-0.5V3.7
		c0-0.9,0-1.4-0.1-1.5c-0.1-0.4-0.4-0.6-0.8-0.6l-0.5,0H64z M64.5,3.3H66c0,0.3,0.1,0.5,0.3,0.6c0.2,0.2,0.3,0.3,0.5,0.3l0.4,0h7.7
		v1.5h-8c-1,0-1.6-0.3-2-1C64.7,4.4,64.6,3.9,64.5,3.3z M64.5,10.3c0.1-0.8,0.3-1.3,0.5-1.6c0.4-0.5,1-0.8,1.8-0.8h8.1v1.5h-7.4
		l-0.6,0c-0.3,0-0.5,0.1-0.6,0.2c-0.1,0.1-0.2,0.4-0.3,0.7H64.5z"/>
</g>
</svg>
