<?xml version="1.0" encoding="utf-8"?>
<!-- Generator: Adobe Illustrator 19.0.0, SVG Export Plug-In . SVG Version: 6.00 Build 0)  -->
<svg version="1.1" id="图层_1" xmlns="http://www.w3.org/2000/svg" xmlns:xlink="http://www.w3.org/1999/xlink" x="0px" y="0px"
	 viewBox="0 0 78.5 13.3" style="enable-background:new 0 0 78.5 13.3;" xml:space="preserve">
<style type="text/css">
	.st0{fill:#2797ED;}
</style>
<g>
	<path class="st0" d="M0,4.3V3c0.6,0,0.9-0.1,1.1-0.1c0.2-0.1,0.4-0.6,0.8-1.4c0.2-0.5,0.4-0.9,0.6-1C2.7,0.2,3,0,3.5,0h2.7
		C6.5,0,6.8,0.1,7,0.4c0.2,0.2,0.4,0.6,0.6,1.1C8,2.2,8.3,2.7,8.4,2.8C8.6,2.9,8.9,2.9,9.5,3v1.4C8.5,4.3,7.9,4.2,7.6,4
		C7.4,3.8,7.2,3.6,7,3.2C7,3.1,6.8,2.8,6.5,2.1C6.4,1.9,6.3,1.8,6.2,1.7C6.1,1.6,5.9,1.5,5.6,1.5H3.7c-0.3,0-0.4,0.1-0.5,0.2
		C3.1,1.8,3,2.2,2.7,2.8C2.4,3.4,2.1,3.8,1.9,4C1.6,4.2,0.9,4.3,0,4.3z M4,10.1V8.8H7c0.5,0,0.8-0.2,0.8-0.7V6.5
		c0-0.4-0.2-0.5-0.6-0.5H2.7C2.4,5.9,2.2,6,2.1,6.1C2,6.2,1.9,6.4,1.9,6.7v4.1c0,0.7,0.3,1.1,0.9,1.1h6.5v1.3H2.5
		c-0.6,0-1.1-0.2-1.5-0.6c-0.4-0.4-0.5-0.8-0.5-1.4V6.2c0-0.5,0.2-1,0.5-1.3c0.3-0.3,0.7-0.4,1.2-0.4h5.4C8,4.5,8.5,4.7,8.8,5
		C9,5.2,9.2,5.6,9.2,6v2.6c0,0.3-0.1,0.6-0.4,0.9c-0.4,0.4-0.9,0.6-1.5,0.6H4z M10.3,13.3v-1.5h1.8c0.3,0,0.5-0.1,0.6-0.2
		c0.1-0.2,0.2-0.3,0.2-0.6V0h1.5v11.2c0,0.6-0.2,1.1-0.6,1.5c-0.4,0.4-0.9,0.6-1.5,0.6H10.3z M10.3,11V0.6h1.4V11H10.3z"/>
	<path class="st0" d="M16,3.2V2.5c0-0.2,0.1-0.4,0.2-0.7c0.4-0.7,1-1.1,1.8-1.1h4.5V0H24v0.7h4c0.8,0,1.4,0.2,1.8,0.5
		c0.4,0.4,0.6,0.8,0.6,1.2v0.8H29V2.9c0-0.2-0.1-0.4-0.3-0.6c-0.2-0.1-0.5-0.2-0.9-0.2h-9.6c-0.5,0-0.8,0.3-0.8,1H16z M16,8.4V7.1
		c0.3,0,0.5,0,0.8,0l0.9,0c0.8,0,1.5-0.1,2-0.2L21,6.7l-3-0.9c-0.1,0-0.2,0-0.2,0c-0.1,0-0.3,0.1-0.5,0.3c-0.2,0.1-0.6,0.2-1.2,0.3
		V4.8c0.6-0.1,1-0.3,1.3-0.6c0.2-0.2,0.4-0.4,0.5-0.6c0.1-0.2,0.2-0.5,0.3-0.8h1.5l-0.1,0.5h8c0.8,0,1.4,0.1,1.8,0.3
		c0.4,0.2,0.6,0.6,0.6,1c0,0.4-0.2,0.8-0.7,1.2c-0.3,0.2-0.8,0.4-1.8,0.6l-0.7,0.2c-0.2,0-0.4,0.1-0.5,0.1C26.8,7,27.4,7.1,28,7.1
		c0.5,0,1.3,0,2.5,0v1.3c-0.2,0-0.4,0-0.5,0c-1.7,0-3-0.1-3.8-0.3l-2.6-0.7l-3,0.7c-1,0.2-2,0.3-3.2,0.3C17.1,8.4,16.7,8.4,16,8.4z
		 M16.5,11.9v-2c0-0.3,0.1-0.6,0.4-0.9c0.3-0.3,0.6-0.4,1-0.4l10.3,0c1.1,0,1.7,0.4,1.7,1.3v2c0,0.3-0.1,0.6-0.4,0.9
		c-0.3,0.3-0.7,0.4-1.3,0.4h-10c-0.6,0-1-0.1-1.2-0.2C16.7,12.9,16.5,12.5,16.5,11.9z M18.8,11.9h8.9c0.4,0,0.6,0,0.6,0
		c0.2-0.1,0.3-0.2,0.3-0.4v-0.8c0-0.3-0.2-0.5-0.5-0.5h-9.5c-0.1,0-0.3,0.1-0.4,0.2c-0.1,0.1-0.2,0.2-0.2,0.4v0.7
		c0,0.2,0.1,0.3,0.2,0.4C18.2,11.9,18.4,11.9,18.8,11.9z M18.9,4.8l4.6,1.3l4.1-1c0.1,0,0.2-0.1,0.2-0.2c0-0.1-0.1-0.1-0.2-0.1H18.9
		z"/>
	<path class="st0" d="M32,13.3v-1.5c0.3-0.1,0.5-0.4,0.6-1l0.6-4.7h1.4l-0.6,4.3c-0.1,0.8-0.3,1.4-0.5,1.7c-0.2,0.4-0.5,0.6-0.8,0.8
		C32.6,13.1,32.3,13.2,32,13.3z M32,5.2V3.7h14.2v1.4h-6.4l0,5.9c0,0.7-0.1,1.1-0.3,1.5c-0.4,0.6-0.9,0.8-1.7,0.8h-1v-1.4l0.7,0
		c0.2,0,0.3-0.1,0.5-0.2c0.2-0.1,0.3-0.3,0.3-0.6c0-0.1,0-0.3,0-0.6V5.2H32z M32.2,1.5V0h14v1.4H32.2z M43.7,6.1h1.4l0.5,4.1
		c0.1,0.5,0.1,0.8,0.2,1c0.1,0.2,0.3,0.4,0.5,0.5v1.5c-0.7-0.2-1.2-0.5-1.5-0.9c-0.3-0.4-0.5-0.9-0.6-1.6L43.7,6.1z"/>
	<path class="st0" d="M48,2.2V0.7h2.2V0h1.4v0.7h7.2V0h1.4v0.7h2.2v1.5h-2.2v1.1h-1.4V2.2h-7.2v1.1h-1.4V2.2H48z M48,5.8V4.3h3.3
		v1.4H48z M48,9V7.6h3.3V9H48z M48,13.2v-1.4h3.3v1.4H48z M56,9.7V8.2h3.9c0.4,0,0.6,0,0.8-0.1c0.1-0.1,0.2-0.3,0.2-0.5V6.4
		c0-0.3,0-0.4-0.1-0.5c-0.1-0.1-0.3-0.2-0.6-0.2h-5.2c-0.3,0-0.5,0-0.6,0.1C54.1,5.9,54,6.1,54,6.4v4.5c0,0.4,0.1,0.7,0.2,0.8
		c0.1,0.1,0.3,0.1,0.6,0.1h7.6v1.4h-7.9c-0.8,0-1.2-0.1-1.4-0.2c-0.2-0.2-0.4-0.3-0.5-0.5c-0.1-0.2-0.1-0.4-0.1-0.7V6
		c0-0.6,0.1-1.1,0.4-1.4c0.3-0.3,0.8-0.4,1.4-0.4h5.8c0.7,0,1.2,0.1,1.4,0.2c0.2,0.1,0.4,0.3,0.5,0.5c0.1,0.2,0.2,0.6,0.2,1V8
		c0,0.5-0.1,0.9-0.4,1.2c-0.3,0.3-0.7,0.4-1.2,0.4H56z"/>
	<path class="st0" d="M64.1,13.2v-1.3c0.1,0,0.2-0.1,0.2-0.1c0.1-0.1,0.1-0.3,0.1-0.5l0.1-7.9h1.3l-0.1,8.3c0,0.2-0.1,0.5-0.2,0.7
		C65.2,12.9,64.7,13.2,64.1,13.2z M64.2,2.6V1.1h2.1V0h1.4v1.1h2v1.4h-2v10.7h-1.4V2.6H64.2z M68.5,13.3v-10h1.2v10H68.5z M70.5,6.8
		V5.3c0.3-0.1,0.5-0.3,0.6-0.4c0.1-0.2,0.2-0.5,0.2-1c0,0,0.1-0.4,0.1-1h1.5c0,0.3-0.1,0.5-0.1,0.6c-0.1,0.9-0.2,1.4-0.3,1.7
		c-0.1,0.2-0.2,0.4-0.4,0.7h0.8c0.6,1,1.1,1.9,1.6,2.5c0.6-0.9,1.1-1.7,1.6-2.5h0.8c-0.2-0.3-0.4-0.5-0.4-0.7
		c-0.1-0.4-0.2-1.2-0.4-2.3h1.5c0,0.3,0.1,0.6,0.1,0.9c0.1,0.6,0.2,1,0.3,1.2c0.1,0.1,0.3,0.2,0.5,0.3v1.5c-0.3,0-0.7-0.1-1-0.4
		c-0.8,1.2-1.5,2.3-2.1,3.1c0.5,0.6,1,1,1.4,1.3c0.4,0.3,1,0.7,1.7,1v1.5c-0.9-0.4-1.6-0.7-2.1-1.1c-0.5-0.3-1.1-0.9-1.8-1.6
		c-0.7,0.7-1.3,1.3-1.8,1.6c-0.5,0.4-1.3,0.7-2.1,1.1v-1.5c1.2-0.5,2.2-1.3,3.1-2.3c-0.6-0.7-1.3-1.8-2.1-3.1
		C71.2,6.6,70.9,6.8,70.5,6.8z M70.6,2.5V1.1h3.2V0h1.4v1.1h3.2v1.4H70.6z"/>
</g>
</svg>
