<?xml version="1.0" encoding="utf-8"?>
<!-- Generator: Adobe Illustrator 19.0.0, SVG Export Plug-In . SVG Version: 6.00 Build 0)  -->
<svg version="1.1" id="图层_1" xmlns="http://www.w3.org/2000/svg" xmlns:xlink="http://www.w3.org/1999/xlink" x="0px" y="0px"
	 viewBox="0 0 352.5 41.6" style="enable-background:new 0 0 352.5 41.6;" xml:space="preserve">
<style type="text/css">
	.st0{fill:#fff;}
</style>
<g id="XMLID_93_">
	<path id="XMLID_94_" class="st0" d="M1.5,29.8v-3.2c1.7-0.1,3.1-0.7,4.3-1.8c1.8-1.6,2.7-3.5,2.7-5.7v-19h3.2v19
		c0,3.5-1.3,6.3-3.9,8.3c-1.1,0.9-2.4,1.5-3.6,1.9C3.6,29.6,2.7,29.7,1.5,29.8z M1.8,21.7V0.9H5v20.8H1.8z M14.3,28.3v-18
		c0-1.2,0.3-2.1,0.8-2.6c0.6-0.6,1.2-0.9,1.8-0.9h5.4V3.4h-8V0.2h19.2v3.2h-8v3.4h4.9c1,0,1.7,0.3,2.2,0.8c0.6,0.6,0.9,1.7,0.9,3.3
		v13.8c0,1.3-0.3,2.3-0.9,2.8c-0.6,0.6-1.6,0.8-3,0.8h-1.4v-3.2H29c0.4,0,0.7-0.1,0.9-0.3c0.2-0.2,0.3-0.7,0.3-1.3V11.5
		c0-0.5,0-0.8-0.1-0.9c-0.3-0.4-0.7-0.7-1.4-0.7h-3.3v19.7h-3.2V9.9h-3.5c-0.4,0-0.8,0.1-0.9,0.3c-0.2,0.2-0.3,0.3-0.3,0.5
		c0,0.1,0,0.4,0,0.9v16.7H14.3z"/>
	<path id="XMLID_98_" class="st0" d="M37.1,11.6V8.2C38,7.8,38.6,7,39,5.9c0.3-1,0.6-2.8,1-5.2l3.3,0c-0.2,1.2-0.4,2.3-0.6,3.4h8.8
		V0.2h3.2V4H69v3.2H54.7v7.1h13.4v3.2H54.7v9H69v3.2H37.2v-3.2h14.3v-9H38.1v-3.2h13.4V7.2H42c-0.6,1.6-1.4,2.7-2.3,3.3
		C39.1,10.9,38.2,11.3,37.1,11.6z"/>
	<path id="XMLID_100_" class="st0" d="M72.6,29.5v-3c0,0,0.1,0,0.1,0c0.4,0,0.7-0.6,0.7-1.7l0.2-13.8h2.9l-0.1,12.5
		c0,1.6-0.1,2.8-0.3,3.4C75.7,28.5,74.5,29.3,72.6,29.5z M72.9,9.2V6h4.8V3.6H73V0.7h12.2v2.9h-4.3V6h4.3v3.1h-4.3v20.5h-3.2V9.2
		H72.9z M82.3,29.6V11H85v18.6H82.3z M87.2,24v-3.3h12V0.2h3.2v20.5h2.2V24h-2.2v5.7h-3.2V24H87.2z M87.2,6.3V3h9.5v3.4H87.2z
		 M87.2,15.4v-3.4h9.5v3.4H87.2z"/>
	<path id="XMLID_107_" class="st0" d="M108,21.2V18l17.4,0l5.1-3.3c0.5-0.3,0.7-0.7,0.7-1c0-0.1-0.1-0.2-0.2-0.3
		c-0.2-0.1-0.6-0.2-1.3-0.2h-19.5l0-3.3h21c1.5,0,2.6,0.3,3.4,0.8c0.8,0.6,1.2,1.4,1.2,2.3c0,1.2-0.7,2.2-2,3.1l-2.7,1.8h8.9v3.2
		l-10.6,0v3.1c0,1.5-0.4,2.7-1.2,3.6c-1,1.1-2.2,1.6-3.8,1.6H118l0-3.3l5.6,0c0.8,0,1.3-0.2,1.7-0.5c0.4-0.4,0.6-0.9,0.6-1.5v-3.1
		H108z M108,9.1l0-1.9c0-2.2,1.1-3.7,3.5-4.5l0-2.6h3.2v2.6h7.7V0.1l3.2,0v2.6h7.9V0.1h3.2l0,2.7c1.5,0.5,2.5,1.3,3,2.4
		c0.3,0.6,0.4,1.4,0.4,2.4l0,1.5h-3.2V7.7c0-1.2-0.8-1.9-2.4-1.9h-21.1c-1.4,0-2.1,0.6-2.1,1.9l0,1.4H108z"/>
	<path id="XMLID_110_" class="st0" d="M143.4,12.9v-2.7h14.4V8.7h-13.7V5.9h13.7V4.5h-14.4V1.8h14.4V0.2h3.2v1.6h14.4v2.8h-14.4v1.4
		h13.6v2.8h-13.6v1.5h14.4v2.7h-24.6l-2.7,2.6h19.2v2.8h-17.2l-2.5,2.4h23c0.5,0,0.9-0.1,1.2-0.4c0.1-0.1,0.2-0.3,0.2-0.6
		s-0.1-0.7-0.3-1.5l-1-4h3.1l1,4.3c0.2,0.8,0.3,1.4,0.3,2c0,1-0.4,1.7-1.2,2.3c-0.6,0.4-1.4,0.6-2.5,0.6h-10.3c0,2,0,3.2-0.1,3.6
		c-0.1,0.8-0.5,1.4-1.1,1.9c-0.5,0.4-1.1,0.6-1.9,0.6l-2.8,0v-3l1.6,0c0.2,0,0.4-0.1,0.6-0.3c0.3-0.2,0.4-0.5,0.4-0.8l0-2.1h-11.2
		c-1.3,0-2.1-0.2-2.6-0.6c-0.4-0.3-0.5-0.8-0.5-1.4c0-0.7,0.3-1.4,0.9-2l1.2-1.2c-1.1-0.2-1.6-0.8-1.6-1.7c0-0.8,0.3-1.5,0.8-2
		l1.5-1.6H143.4z M143.5,29.3v-3.3c0.5,0,0.9-0.2,1.2-0.5c0.3-0.4,0.4-0.8,0.4-1.2h3.2c-0.3,1.3-0.6,2.3-0.9,2.8
		C146.6,28.6,145.3,29.4,143.5,29.3z M170.4,24.2l3.2,0c0.2,1.2,0.6,1.8,1.4,1.8c0.1,0,0.2,0,0.3,0v3.3c-1.2,0-2.2-0.4-3.1-1.2
		C171.3,27.3,170.7,26,170.4,24.2z"/>
	<path id="XMLID_114_" class="st0" d="M178.8,29.5v-3.2c0.7-0.2,1.2-0.6,1.4-1.1c0.3-0.5,0.4-1.5,0.4-2.9V6.4c0-1.5,0.2-2.6,0.5-3.2
		c0.8-1.6,2.2-2.4,4.3-2.4h21.2c0.5,0,0.8-0.3,0.9-0.8h3.3c-0.2,1.3-0.5,2.2-1.1,2.8c-0.8,0.8-1.9,1.2-3.4,1.2h-19.5
		c-0.9,0-1.5,0.1-1.7,0.2c-0.7,0.4-1,0.9-1.1,1.6v17.2c0,2.2-0.5,3.8-1.5,5C181.5,29,180.3,29.5,178.8,29.5z M186,29.4v-3.3
		c3.1-0.6,5.4-1.4,6.9-2.6c1.4-1,2.5-2.4,3.1-4c0.3-0.7,0.5-1.7,0.7-3h3.4c0.3,2,0.7,3.5,1.4,4.6c1,1.7,2.7,3,4.8,3.9
		c1,0.4,2.5,0.8,4.4,1.2v3.3c-2.9-0.5-5.2-1.2-6.9-2.1c-1.5-0.8-2.8-1.8-3.9-3c-0.4-0.5-1-1.4-1.8-2.5c-0.6,1.2-1.1,2.1-1.7,2.8
		c-1.4,1.6-3.4,2.8-6.1,3.7C189.3,28.8,187.8,29.1,186,29.4z M186,9.8V6.6h10.7V4.9h3.2v1.6h10.8v3.2h-10.8v2.5h6.7
		c1.2,0,2,0.3,2.6,0.8c0.6,0.6,0.9,1.3,0.9,2.1l0,8.9H207v-7.3c0-0.8-0.5-1.3-1.6-1.3h-14.3c-1,0-1.5,0.4-1.5,1.2l0,7.4h-3.2l0-8.5
		c0-1,0.3-1.8,0.9-2.4c0.6-0.6,1.4-0.8,2.4-0.8h6.9V9.8H186z"/>
	<path id="XMLID_118_" class="st0" d="M214.2,29.7v-3.2c1.4-0.1,2.1-1.2,2.1-3.3l0-18.4c0-1.3,0.4-2.3,1.2-3.1
		c0.9-0.9,2.1-1.4,3.8-1.4h21c1.2,0,2.2,0.3,2.8,0.9c0.7,0.6,1,1.4,1,2.4v2.6c0,1-0.3,1.8-0.8,2.4c-0.6,0.6-1.5,0.8-2.9,0.8h-22.8
		v14.1c0,1-0.2,1.9-0.6,2.9c-0.5,1.2-1.3,2.2-2.5,2.9C215.8,29.5,215.1,29.6,214.2,29.7z M219.5,6.1l22,0c0.6,0,0.9-0.1,1.1-0.2
		c0.2-0.1,0.3-0.4,0.3-0.9V4.4c0-0.6-0.4-0.9-1.3-0.9h-19.8c-1.5,0-2.2,0.6-2.2,1.8V6.1z M221.3,20.4v-3.2h4.2v-2.5h-3.8l0-3.2
		l3.9,0v-1.2h3.3v1.2h10.6v-1.2h3.2l0,1.2h3.5v3.2h-3.5v2.5h3.9v3.2l-8.6,0l1.4,1.7h6.8v2.6l-4.6,0c1.5,1.2,3.1,1.8,4.9,2v3
		c-1.5,0-2.8-0.3-3.9-0.7c-1.9-0.8-3.8-2.3-5.5-4.4l-3.2-4.1H226l0,3.9c0,0.7,0.2,1.2,0.5,1.6c0.3,0.4,0.9,0.5,1.8,0.5h3.6l0,3.2
		h-4.8c-1.2,0-2.2-0.4-3.1-1.3c-0.8-0.8-1.3-1.7-1.3-2.9v-5.1H221.3z M228.7,17.2h10.6v-2.5h-10.6V17.2z"/>
	<path id="XMLID_123_" class="st0" d="M249.6,29.6v-3.3c0.7-0.2,1.2-1,1.3-2.1l1.4-10.5h3.2l-1.2,9.6c-0.2,1.8-0.6,3.1-1.1,3.8
		c-0.5,0.8-1.1,1.4-1.8,1.9C251,29.1,250.4,29.4,249.6,29.6z M249.8,11.6V8.4h31.5v3.2h-14.1l0,13c0,1.5-0.3,2.5-0.8,3.2
		c-0.9,1.2-2.1,1.9-3.7,1.9h-2.1v-3.2l1.5,0c0.4,0,0.8-0.1,1.2-0.4c0.4-0.2,0.6-0.7,0.7-1.2c0-0.3,0.1-0.7,0.1-1.3v-12H249.8z
		 M250.1,3.4V0.2H281v3.2H250.1z M275.6,13.6h3.2l1.1,9.2c0.1,1.1,0.3,1.8,0.4,2.3c0.2,0.5,0.6,0.9,1.2,1.2v3.3
		c-1.5-0.4-2.6-1.1-3.4-2c-0.6-0.8-1-1.9-1.2-3.5L275.6,13.6z"/>
	<path id="XMLID_128_" class="st0" d="M285.1,20.8v-3.3h14.4V3.3h-14.4V0.1h32.1v3.2h-14.4v14.2h14.4v3.3h-14.4v8.8h-3.2v-8.8H285.1
		z M287.7,4.9h3.2l0.5,4.3c0.2,1.5,0.4,2.5,0.8,3c0.4,0.4,0.9,0.6,1.7,0.7v3.2c-1.6-0.1-3-0.7-4-1.7c-0.9-0.9-1.4-2.1-1.5-3.5
		L287.7,4.9z M308.5,16.1v-3.2c0.9-0.1,1.5-0.4,1.8-0.8c0.4-0.5,0.6-1.3,0.7-2.5l0.5-4.7h3.2l-0.6,5.2c-0.1,1.3-0.4,2.3-0.6,2.9
		c-0.5,1.1-1.3,1.9-2.6,2.5C310.3,15.9,309.4,16.1,308.5,16.1z"/>
	<path id="XMLID_132_" class="st0" d="M323.8,0.2h3.8L324.6,8c-0.1,0.3-0.2,0.5-0.2,0.8c0,0.7,0.5,1,1.6,1H347c1.3,0,2-0.5,2-1.6
		c0-0.2,0-0.4-0.1-0.7l-1.3-4.1h3.3c0.2,0.6,0.4,1.4,0.8,2.6c0.5,1.6,0.8,2.7,0.8,3.2c0,1.2-0.7,2.2-2,3c-0.9,0.5-2.3,0.8-4.2,0.8
		h-20.7c-1.8,0-3-0.2-3.7-0.7c-0.8-0.6-1.2-1.4-1.2-2.5c0-0.6,0.2-1.4,0.5-2.3L323.8,0.2z M321.1,25.8v-6.6c0-2.3,1.2-3.4,3.6-3.4
		h23.4c1.3,0,2.3,0.3,3,0.8c0.4,0.4,0.7,0.8,0.8,1.2c0.1,0.3,0.1,0.8,0.1,1.4v7.2c0,0.9-0.2,1.6-0.6,2.1c-0.4,0.5-0.9,0.8-1.5,1
		c-0.3,0.1-0.8,0.1-1.5,0.1h-23.6c-1.6,0-2.7-0.4-3.3-1.3C321.3,27.9,321.1,27,321.1,25.8z M325.5,26.3h22.3c0.4,0,0.7-0.1,0.9-0.3
		c0.1-0.1,0.2-0.4,0.2-0.8V20c0-0.7-0.3-1-1-1h-22.5c-0.7,0-1,0.3-1,0.9v5.5C324.3,26,324.7,26.3,325.5,26.3z"/>
	<path id="XMLID_136_" class="st0" d="M0.3,31.4H7v1.2H4.3v7H3v-7H0.3V31.4z"/>
	<path id="XMLID_138_" class="st0" d="M7.5,39.6v-8.2h1.1v2.7h3c0.4,0,0.8,0.1,1,0.4c0.2,0.3,0.4,0.6,0.4,0.9v4.1h-1.1v-3.9
		c0-0.2,0-0.3-0.1-0.4c-0.1-0.1-0.2-0.2-0.4-0.2H9.2c-0.3,0-0.5,0.1-0.5,0.4v4H7.5z"/>
	<path id="XMLID_140_" class="st0" d="M14.8,37.4v0.7c0,0.2,0,0.3,0.1,0.4c0.1,0.1,0.3,0.1,0.6,0.1H19v1h-3.8
		c-0.4,0-0.8-0.1-0.9-0.2c-0.4-0.3-0.6-0.7-0.6-1.1v-2.8c0-0.5,0.1-0.9,0.4-1.1c0.3-0.2,0.7-0.3,1.2-0.3h2.4c0.5,0,0.9,0.1,1.2,0.4
		c0.2,0.2,0.3,0.5,0.3,0.9v0.7c0,0.3-0.1,0.6-0.3,0.9c-0.2,0.3-0.5,0.4-0.9,0.4H14.8z M14.8,36.4h2.7c0.4,0,0.6-0.2,0.6-0.5v-0.2
		c0-0.2,0-0.3-0.1-0.4c-0.1-0.1-0.2-0.1-0.4-0.1h-2.1c-0.2,0-0.3,0-0.4,0c-0.1,0.1-0.2,0.2-0.2,0.4V36.4z"/>
	<path id="XMLID_143_" class="st0" d="M29.6,34.1v-2.7h1.1v6.7c0,0.4-0.1,0.7-0.2,0.9c-0.3,0.4-0.7,0.6-1.3,0.6h-2.6
		c-0.4,0-0.7-0.1-1-0.4c-0.3-0.3-0.4-0.6-0.4-1v-2.9c0-0.4,0.1-0.7,0.4-0.9c0.3-0.3,0.6-0.4,1-0.4H29.6z M26.9,38.6H29
		c0.2,0,0.4,0,0.4-0.1c0.1-0.1,0.1-0.2,0.1-0.4v-2.5c0-0.3-0.2-0.5-0.5-0.5h-2.2c-0.2,0-0.3,0-0.4,0.1c-0.1,0.1-0.1,0.2-0.1,0.3v2.5
		c0,0.2,0,0.3,0.1,0.4c0.1,0.1,0.2,0.1,0.2,0.1C26.8,38.6,26.8,38.6,26.9,38.6z"/>
	<path id="XMLID_146_" class="st0" d="M31.5,31.4h1.1v1.4h-1.1V31.4z M31.5,34.1h1.1v5.5h-1.1V34.1z"/>
	<path id="XMLID_149_" class="st0" d="M33.3,39.6v-1h3.3c0.3,0,0.5-0.1,0.5-0.4v-0.5c0-0.3-0.2-0.4-0.5-0.4h-1.8
		c-0.5,0-0.8-0.1-1.1-0.4c-0.3-0.3-0.4-0.6-0.4-0.9v-0.6c0-0.4,0.1-0.7,0.4-0.9c0.3-0.3,0.6-0.4,1-0.4h3.5v1H35
		c-0.1,0-0.3,0-0.4,0.1c-0.1,0.1-0.1,0.2-0.1,0.3V36c0,0.1,0,0.1,0.1,0.2c0.1,0.1,0.3,0.1,0.5,0.1h1.8c0.4,0,0.8,0.1,1.1,0.4
		c0.2,0.3,0.4,0.5,0.4,0.8v0.7c0,0.4-0.1,0.7-0.4,1c-0.3,0.2-0.6,0.4-1.1,0.4H33.3z"/>
	<path id="XMLID_151_" class="st0" d="M40,39.6v1.8h-1.1v-6c0-0.4,0.1-0.8,0.4-1c0.2-0.2,0.5-0.3,0.9-0.3h2.9c0.4,0,0.7,0.1,1,0.4
		c0.2,0.2,0.3,0.5,0.3,0.8v2.8c0,0.4-0.1,0.8-0.4,1c-0.3,0.3-0.6,0.4-1,0.4H40z M40,35.6v2.5c0,0.2,0,0.4,0.1,0.4
		c0.1,0.1,0.3,0.1,0.5,0.1h2c0.2,0,0.4,0,0.5-0.1c0.1-0.1,0.1-0.2,0.1-0.4v-2.5c0-0.3-0.2-0.5-0.5-0.5h-2c-0.2,0-0.3,0-0.4,0
		C40.1,35.3,40,35.4,40,35.6z"/>
	<path id="XMLID_154_" class="st0" d="M45.1,31.4h1.1v8.2h-1.1V31.4z"/>
	<path id="XMLID_156_" class="st0" d="M52.9,38.6v1.1h-0.3c-0.3,0-0.5-0.1-0.7-0.3c-0.1,0-0.1,0.1-0.1,0.1c-0.2,0.1-0.4,0.2-0.6,0.2
		h-2.9c-0.2,0-0.4-0.1-0.6-0.2c-0.4-0.2-0.6-0.6-0.6-1.1v-2.7c0-0.5,0.1-0.8,0.4-1.1c0.3-0.3,0.6-0.4,0.9-0.4h2.7
		c0.4,0,0.8,0.1,1,0.4s0.4,0.6,0.4,0.9v2.7C52.3,38.4,52.5,38.6,52.9,38.6z M48.5,38.6h2.2c0.3,0,0.5-0.2,0.5-0.5v-2.6
		c0-0.1,0-0.2-0.1-0.3c-0.1-0.1-0.2-0.1-0.5-0.1h-1.9c-0.3,0-0.4,0-0.5,0.1c-0.1,0.1-0.1,0.2-0.1,0.3v2.6
		C48.1,38.5,48.2,38.6,48.5,38.6z"/>
	<path id="XMLID_159_" class="st0" d="M56.4,39.2h-0.3c-0.3,0-0.5-0.1-0.8-0.2c-0.3-0.2-0.5-0.4-0.6-0.7l-1.3-4.2h1.1l1.1,3.5
		c0.1,0.4,0.3,0.5,0.7,0.5c0.3,0,0.6-0.2,0.7-0.5l1.1-3.5h1.1L57.4,40c-0.2,0.5-0.4,0.9-0.6,1.1c-0.3,0.3-0.7,0.4-1.2,0.4h-1v-1h0.7
		c0.3,0,0.5,0,0.6-0.1c0.2-0.1,0.3-0.3,0.4-0.6L56.4,39.2z"/>
	<path id="XMLID_161_" class="st0" d="M66.3,39.6v1.8h-1.1v-6c0-0.4,0.1-0.8,0.4-1c0.2-0.2,0.5-0.3,0.9-0.3h2.9c0.4,0,0.7,0.1,1,0.4
		c0.2,0.2,0.3,0.5,0.3,0.8v2.8c0,0.4-0.1,0.8-0.4,1c-0.3,0.3-0.6,0.4-1,0.4H66.3z M66.3,35.6v2.5c0,0.2,0,0.4,0.1,0.4
		c0.1,0.1,0.3,0.1,0.5,0.1h2c0.2,0,0.4,0,0.5-0.1c0.1-0.1,0.1-0.2,0.1-0.4v-2.5c0-0.3-0.2-0.5-0.5-0.5h-2c-0.2,0-0.3,0-0.4,0
		C66.4,35.3,66.3,35.4,66.3,35.6z"/>
	<path id="XMLID_164_" class="st0" d="M71.4,31.4h1.1v8.2h-1.1V31.4z"/>
	<path id="XMLID_166_" class="st0" d="M79.2,38.6v1.1H79c-0.3,0-0.5-0.1-0.7-0.3c-0.1,0-0.1,0.1-0.1,0.1c-0.2,0.1-0.4,0.2-0.6,0.2
		h-2.9c-0.2,0-0.4-0.1-0.6-0.2c-0.4-0.2-0.6-0.6-0.6-1.1v-2.7c0-0.5,0.1-0.8,0.4-1.1c0.3-0.3,0.6-0.4,0.9-0.4h2.7
		c0.4,0,0.8,0.1,1,0.4s0.4,0.6,0.4,0.9v2.7C78.7,38.4,78.9,38.6,79.2,38.6z M74.9,38.6H77c0.3,0,0.5-0.2,0.5-0.5v-2.6
		c0-0.1,0-0.2-0.1-0.3c-0.1-0.1-0.2-0.1-0.5-0.1H75c-0.3,0-0.4,0-0.5,0.1c-0.1,0.1-0.1,0.2-0.1,0.3v2.6
		C74.4,38.5,74.6,38.6,74.9,38.6z"/>
	<path id="XMLID_169_" class="st0" d="M81,32.7h1.1v1.6h1.9v1h-1.9v2.8c0,0.2,0.1,0.4,0.2,0.4c0.1,0.1,0.3,0.1,0.6,0.1H84v1h-1.4
		c-0.5,0-0.8-0.1-1-0.2c-0.4-0.3-0.7-0.7-0.7-1.3v-2.9h-1.3v-1H81V32.7z"/>
	<path id="XMLID_171_" class="st0" d="M84.6,35.2v-1h0.8v-1.4c0-0.4,0.1-0.7,0.4-1c0.3-0.2,0.6-0.4,1-0.4h1.6v1H87
		c-0.3,0-0.5,0.1-0.5,0.4v1.3h1.8v1h-1.8v4.5h-1.1v-4.5H84.6z"/>
	<path id="XMLID_173_" class="st0" d="M89,38.2v-2.7c0-0.4,0.1-0.7,0.4-0.9c0.3-0.2,0.6-0.4,1.1-0.4h2c0.5,0,0.9,0.1,1.1,0.4
		c0.3,0.3,0.4,0.6,0.4,0.9v2.7c0,0.4-0.1,0.8-0.4,1.1c-0.2,0.2-0.6,0.4-1.1,0.4h-2c-0.5,0-0.9-0.1-1.1-0.4C89.1,39,89,38.6,89,38.2z
		 M90.1,35.8V38c0,0.4,0.2,0.6,0.5,0.6h1.7c0.4,0,0.5-0.2,0.5-0.6v-2.2c0-0.4-0.2-0.6-0.6-0.6h-1.6c-0.2,0-0.4,0-0.5,0.1
		C90.1,35.4,90.1,35.6,90.1,35.8z"/>
	<path id="XMLID_176_" class="st0" d="M94.6,39.7v-5.6h1.1v0.8c0.4,0,0.7-0.1,0.9-0.2c0.2-0.1,0.3-0.3,0.4-0.6h1.1
		c-0.2,0.5-0.4,0.9-0.8,1.3c-0.2,0.2-0.5,0.4-0.9,0.5c-0.1,0-0.4,0.1-0.7,0.1v3.7H94.6z"/>
	<path id="XMLID_178_" class="st0" d="M98.6,39.6v-4.1c0-0.4,0.1-0.7,0.4-1c0.3-0.3,0.6-0.4,1.1-0.4h5c0.4,0,0.8,0.1,1,0.2
		c0.4,0.3,0.6,0.6,0.6,1.2v4.1h-1.1v-3.9c0-0.4-0.2-0.6-0.5-0.6h-1.3c-0.2,0-0.4,0.1-0.5,0.2c-0.1,0.1-0.1,0.2-0.1,0.4v3.9H102v-4
		c0-0.3-0.1-0.5-0.4-0.5h-1.3c-0.2,0-0.4,0-0.5,0.1c-0.1,0.1-0.1,0.2-0.1,0.4v3.9H98.6z"/>
	<path id="XMLID_180_" class="st0" d="M112.8,38.2v-2.7c0-0.4,0.1-0.7,0.4-0.9c0.3-0.2,0.6-0.4,1.1-0.4h2c0.5,0,0.9,0.1,1.1,0.4
		c0.3,0.3,0.4,0.6,0.4,0.9v2.7c0,0.4-0.1,0.8-0.4,1.1c-0.2,0.2-0.6,0.4-1.1,0.4h-2c-0.5,0-0.9-0.1-1.1-0.4
		C112.9,39,112.8,38.6,112.8,38.2z M113.9,35.8V38c0,0.4,0.2,0.6,0.5,0.6h1.7c0.4,0,0.5-0.2,0.5-0.6v-2.2c0-0.4-0.2-0.6-0.6-0.6
		h-1.6c-0.2,0-0.4,0-0.5,0.1C114,35.4,113.9,35.6,113.9,35.8z"/>
	<path id="XMLID_183_" class="st0" d="M118.5,35.2v-1h0.8v-1.4c0-0.4,0.1-0.7,0.4-1c0.3-0.2,0.6-0.4,1-0.4h1.6v1h-1.4
		c-0.3,0-0.5,0.1-0.5,0.4v1.3h1.8v1h-1.8v4.5h-1.1v-4.5H118.5z"/>
	<path id="XMLID_185_" class="st0" d="M128.3,39.6v-1h3.3c0.3,0,0.5-0.1,0.5-0.4v-0.5c0-0.3-0.2-0.4-0.5-0.4h-1.8
		c-0.5,0-0.8-0.1-1.1-0.4c-0.3-0.3-0.4-0.6-0.4-0.9v-0.6c0-0.4,0.1-0.7,0.4-0.9c0.3-0.3,0.6-0.4,1-0.4h3.5v1H130
		c-0.1,0-0.3,0-0.4,0.1c-0.1,0.1-0.1,0.2-0.1,0.3V36c0,0.1,0,0.1,0.1,0.2c0.1,0.1,0.3,0.1,0.5,0.1h1.8c0.4,0,0.8,0.1,1.1,0.4
		c0.2,0.3,0.4,0.5,0.4,0.8v0.7c0,0.4-0.1,0.7-0.4,1c-0.3,0.2-0.6,0.4-1.1,0.4H128.3z"/>
	<path id="XMLID_187_" class="st0" d="M139.4,34.1v1h-3.7c-0.3,0-0.5,0.1-0.6,0.2c-0.1,0.1-0.1,0.2-0.1,0.4v2.1c0,0.4,0,0.7,0.1,0.7
		c0.1,0.1,0.3,0.2,0.5,0.2h3.8v1h-4.1c-0.4,0-0.8-0.1-1-0.4c-0.2-0.2-0.4-0.6-0.4-1v-2.9c0-0.3,0.1-0.6,0.4-0.9
		c0.3-0.3,0.6-0.4,1-0.4H139.4z"/>
	<path id="XMLID_189_" class="st0" d="M140.1,31.4h1.1v1.4h-1.1V31.4z M140.1,34.1h1.1v5.5h-1.1V34.1z"/>
	<path id="XMLID_192_" class="st0" d="M143.1,37.4v0.7c0,0.2,0,0.3,0.1,0.4c0.1,0.1,0.3,0.1,0.6,0.1h3.5v1h-3.8
		c-0.4,0-0.8-0.1-0.9-0.2c-0.4-0.3-0.6-0.7-0.6-1.1v-2.8c0-0.5,0.1-0.9,0.4-1.1c0.3-0.2,0.7-0.3,1.2-0.3h2.4c0.5,0,0.9,0.1,1.2,0.4
		c0.2,0.2,0.3,0.5,0.3,0.9v0.7c0,0.3-0.1,0.6-0.3,0.9c-0.2,0.3-0.5,0.4-0.9,0.4H143.1z M143.1,36.4h2.7c0.4,0,0.6-0.2,0.6-0.5v-0.2
		c0-0.2,0-0.3-0.1-0.4c-0.1-0.1-0.2-0.1-0.4-0.1h-2.1c-0.2,0-0.3,0-0.4,0c-0.1,0.1-0.2,0.2-0.2,0.4V36.4z"/>
	<path id="XMLID_195_" class="st0" d="M148.1,39.6v-4c0-0.4,0.1-0.8,0.4-1c0.3-0.3,0.6-0.4,0.9-0.4h2.3c0.5,0,0.8,0.1,1.1,0.4
		c0.3,0.3,0.4,0.6,0.4,1v4.1H152v-3.9c0-0.2,0-0.3-0.1-0.4c-0.1-0.1-0.2-0.1-0.4-0.1h-1.6c-0.3,0-0.5,0.1-0.6,0.2
		c-0.1,0.1-0.1,0.2-0.1,0.4v3.9H148.1z"/>
	<path id="XMLID_197_" class="st0" d="M155,32.7h1.1v1.6h1.9v1h-1.9v2.8c0,0.2,0.1,0.4,0.2,0.4c0.1,0.1,0.3,0.1,0.6,0.1h1.1v1h-1.4
		c-0.5,0-0.8-0.1-1-0.2c-0.4-0.3-0.7-0.7-0.7-1.3v-2.9h-1.3v-1h1.3V32.7z"/>
	<path id="XMLID_199_" class="st0" d="M158.7,31.4h1.1v1.4h-1.1V31.4z M158.7,34.1h1.1v5.5h-1.1V34.1z"/>
	<path id="XMLID_202_" class="st0" d="M160.6,35.2v-1h0.8v-1.4c0-0.4,0.1-0.7,0.4-1c0.3-0.2,0.6-0.4,1-0.4h1.6v1h-1.4
		c-0.3,0-0.5,0.1-0.5,0.4v1.3h1.8v1h-1.8v4.5h-1.1v-4.5H160.6z"/>
	<path id="XMLID_204_" class="st0" d="M165.2,31.4h1.1v1.4h-1.1V31.4z M165.2,34.1h1.1v5.5h-1.1V34.1z"/>
	<path id="XMLID_207_" class="st0" d="M172.6,34.1v1h-3.7c-0.3,0-0.5,0.1-0.6,0.2c-0.1,0.1-0.1,0.2-0.1,0.4v2.1c0,0.4,0,0.7,0.1,0.7
		c0.1,0.1,0.3,0.2,0.5,0.2h3.8v1h-4.1c-0.4,0-0.8-0.1-1-0.4c-0.2-0.2-0.4-0.6-0.4-1v-2.9c0-0.3,0.1-0.6,0.4-0.9
		c0.3-0.3,0.6-0.4,1-0.4H172.6z"/>
	<path id="XMLID_209_" class="st0" d="M183,39.6h-2.9c-0.4,0-0.7-0.1-0.9-0.2c-0.4-0.3-0.6-0.6-0.6-1.1v-3c0-0.3,0.1-0.6,0.3-0.9
		c0.2-0.2,0.5-0.3,0.9-0.3h2.9c0.5,0,0.8,0.1,1.1,0.4c0.2,0.2,0.3,0.5,0.3,0.9v6H183V39.6z M180.2,38.6l2.2,0c0.2,0,0.4,0,0.5-0.1
		c0.1-0.1,0.1-0.2,0.1-0.4v-2.3c0-0.2,0-0.4-0.1-0.4c-0.1-0.1-0.3-0.1-0.5-0.1h-2c-0.2,0-0.3,0.1-0.4,0.2c-0.1,0.1-0.1,0.2-0.1,0.3
		v2.1c0,0.4,0,0.7,0.1,0.8C180,38.5,180.1,38.6,180.2,38.6z"/>
	<path id="XMLID_212_" class="st0" d="M189.8,34.2v4c0,0.4-0.1,0.7-0.3,1c-0.2,0.3-0.6,0.4-1,0.4H186c-0.4,0-0.8-0.1-1-0.4
		c-0.2-0.3-0.3-0.6-0.3-1v-4h1.1v3.9c0,0.4,0.2,0.5,0.5,0.5h1.8c0.4,0,0.6-0.2,0.6-0.6v-3.9H189.8z"/>
	<path id="XMLID_214_" class="st0" d="M196.4,38.6v1.1h-0.3c-0.3,0-0.5-0.1-0.7-0.3c-0.1,0-0.1,0.1-0.1,0.1
		c-0.2,0.1-0.4,0.2-0.6,0.2h-2.9c-0.2,0-0.4-0.1-0.6-0.2c-0.4-0.2-0.6-0.6-0.6-1.1v-2.7c0-0.5,0.1-0.8,0.4-1.1
		c0.3-0.3,0.6-0.4,0.9-0.4h2.7c0.4,0,0.8,0.1,1,0.4s0.4,0.6,0.4,0.9v2.7C195.8,38.4,196,38.6,196.4,38.6z M192,38.6h2.2
		c0.3,0,0.5-0.2,0.5-0.5v-2.6c0-0.1,0-0.2-0.1-0.3c-0.1-0.1-0.2-0.1-0.5-0.1h-1.9c-0.3,0-0.4,0-0.5,0.1c-0.1,0.1-0.1,0.2-0.1,0.3
		v2.6C191.5,38.5,191.7,38.6,192,38.6z"/>
	<path id="XMLID_217_" class="st0" d="M197.1,31.4h1.1v8.2h-1.1V31.4z"/>
	<path id="XMLID_219_" class="st0" d="M199.1,31.4h1.1v1.4h-1.1V31.4z M199.1,34.1h1.1v5.5h-1.1V34.1z"/>
	<path id="XMLID_222_" class="st0" d="M202.2,32.7h1.1v1.6h1.9v1h-1.9v2.8c0,0.2,0.1,0.4,0.2,0.4c0.1,0.1,0.3,0.1,0.6,0.1h1.1v1
		h-1.4c-0.5,0-0.8-0.1-1-0.2c-0.4-0.3-0.7-0.7-0.7-1.3v-2.9H201v-1h1.3V32.7z"/>
	<path id="XMLID_224_" class="st0" d="M208.8,39.2h-0.3c-0.3,0-0.5-0.1-0.8-0.2c-0.3-0.2-0.5-0.4-0.6-0.7l-1.3-4.2h1.1l1.1,3.5
		c0.1,0.4,0.3,0.5,0.7,0.5c0.3,0,0.6-0.2,0.7-0.5l1.1-3.5h1.1l-1.9,5.9c-0.2,0.5-0.4,0.9-0.6,1.1c-0.3,0.3-0.7,0.4-1.2,0.4h-1v-1
		h0.7c0.3,0,0.5,0,0.6-0.1c0.2-0.1,0.3-0.3,0.4-0.6L208.8,39.2z"/>
	<path id="XMLID_226_" class="st0" d="M217.6,38.2v-2.7c0-0.4,0.1-0.7,0.4-0.9c0.3-0.2,0.6-0.4,1.1-0.4h2c0.5,0,0.9,0.1,1.1,0.4
		c0.3,0.3,0.4,0.6,0.4,0.9v2.7c0,0.4-0.1,0.8-0.4,1.1c-0.2,0.2-0.6,0.4-1.1,0.4h-2c-0.5,0-0.9-0.1-1.1-0.4
		C217.7,39,217.6,38.6,217.6,38.2z M218.7,35.8V38c0,0.4,0.2,0.6,0.5,0.6h1.7c0.4,0,0.5-0.2,0.5-0.6v-2.2c0-0.4-0.2-0.6-0.6-0.6
		h-1.6c-0.2,0-0.4,0-0.5,0.1C218.8,35.4,218.7,35.6,218.7,35.8z"/>
	<path id="XMLID_229_" class="st0" d="M223.3,35.2v-1h0.8v-1.4c0-0.4,0.1-0.7,0.4-1c0.3-0.2,0.6-0.4,1-0.4h1.6v1h-1.4
		c-0.3,0-0.5,0.1-0.5,0.4v1.3h1.8v1h-1.8v4.5h-1.1v-4.5H223.3z"/>
	<path id="XMLID_231_" class="st0" d="M234.4,32.7h1.1v1.6h1.9v1h-1.9v2.8c0,0.2,0.1,0.4,0.2,0.4c0.1,0.1,0.3,0.1,0.6,0.1h1.1v1
		h-1.4c-0.5,0-0.8-0.1-1-0.2c-0.4-0.3-0.7-0.7-0.7-1.3v-2.9h-1.3v-1h1.3V32.7z"/>
	<path id="XMLID_233_" class="st0" d="M239.2,37.4v0.7c0,0.2,0,0.3,0.1,0.4c0.1,0.1,0.3,0.1,0.6,0.1h3.5v1h-3.8
		c-0.4,0-0.8-0.1-0.9-0.2c-0.4-0.3-0.6-0.7-0.6-1.1v-2.8c0-0.5,0.1-0.9,0.4-1.1c0.3-0.2,0.7-0.3,1.2-0.3h2.4c0.5,0,0.9,0.1,1.2,0.4
		c0.2,0.2,0.3,0.5,0.3,0.9v0.7c0,0.3-0.1,0.6-0.3,0.9c-0.2,0.3-0.5,0.4-0.9,0.4H239.2z M239.2,36.4h2.7c0.4,0,0.6-0.2,0.6-0.5v-0.2
		c0-0.2,0-0.3-0.1-0.4c-0.1-0.1-0.2-0.1-0.4-0.1h-2.1c-0.2,0-0.3,0-0.4,0c-0.1,0.1-0.2,0.2-0.2,0.4V36.4z"/>
	<path id="XMLID_236_" class="st0" d="M250.1,38.6v1.1h-0.3c-0.3,0-0.5-0.1-0.7-0.3c-0.1,0-0.1,0.1-0.1,0.1
		c-0.2,0.1-0.4,0.2-0.6,0.2h-2.9c-0.2,0-0.4-0.1-0.6-0.2c-0.4-0.2-0.6-0.6-0.6-1.1v-2.7c0-0.5,0.1-0.8,0.4-1.1
		c0.3-0.3,0.6-0.4,0.9-0.4h2.7c0.4,0,0.8,0.1,1,0.4s0.4,0.6,0.4,0.9v2.7C249.5,38.4,249.7,38.6,250.1,38.6z M245.7,38.6h2.2
		c0.3,0,0.5-0.2,0.5-0.5v-2.6c0-0.1,0-0.2-0.1-0.3c-0.1-0.1-0.2-0.1-0.5-0.1h-1.9c-0.3,0-0.4,0-0.5,0.1c-0.1,0.1-0.1,0.2-0.1,0.3
		v2.6C245.2,38.5,245.4,38.6,245.7,38.6z"/>
	<path id="XMLID_239_" class="st0" d="M256.1,34.1v1h-3.7c-0.3,0-0.5,0.1-0.6,0.2c-0.1,0.1-0.1,0.2-0.1,0.4v2.1c0,0.4,0,0.7,0.1,0.7
		c0.1,0.1,0.3,0.2,0.5,0.2h3.8v1h-4.1c-0.4,0-0.8-0.1-1-0.4c-0.2-0.2-0.4-0.6-0.4-1v-2.9c0-0.3,0.1-0.6,0.4-0.9
		c0.3-0.3,0.6-0.4,1-0.4H256.1z"/>
	<path id="XMLID_241_" class="st0" d="M256.7,39.6v-8.2h1.1v2.7h3c0.4,0,0.8,0.1,1,0.4c0.2,0.3,0.4,0.6,0.4,0.9v4.1h-1.1v-3.9
		c0-0.2,0-0.3-0.1-0.4c-0.1-0.1-0.2-0.2-0.4-0.2h-2.2c-0.3,0-0.5,0.1-0.5,0.4v4H256.7z"/>
	<path id="XMLID_243_" class="st0" d="M264,37.4v0.7c0,0.2,0,0.3,0.1,0.4c0.1,0.1,0.3,0.1,0.6,0.1h3.5v1h-3.8
		c-0.4,0-0.8-0.1-0.9-0.2c-0.4-0.3-0.6-0.7-0.6-1.1v-2.8c0-0.5,0.1-0.9,0.4-1.1c0.3-0.2,0.7-0.3,1.2-0.3h2.4c0.5,0,0.9,0.1,1.2,0.4
		c0.2,0.2,0.3,0.5,0.3,0.9v0.7c0,0.3-0.1,0.6-0.3,0.9c-0.2,0.3-0.5,0.4-0.9,0.4H264z M264,36.4h2.7c0.4,0,0.6-0.2,0.6-0.5v-0.2
		c0-0.2,0-0.3-0.1-0.4c-0.1-0.1-0.2-0.1-0.4-0.1h-2.1c-0.2,0-0.3,0-0.4,0c-0.1,0.1-0.2,0.2-0.2,0.4V36.4z"/>
	<path id="XMLID_246_" class="st0" d="M268.9,39.7v-5.6h1.1v0.8c0.4,0,0.7-0.1,0.9-0.2c0.2-0.1,0.3-0.3,0.4-0.6h1.1
		c-0.2,0.5-0.4,0.9-0.8,1.3c-0.2,0.2-0.5,0.4-0.9,0.5c-0.1,0-0.4,0.1-0.7,0.1v3.7H268.9z"/>
	<path id="XMLID_248_" class="st0" d="M272.8,39.6v-1h3.3c0.3,0,0.5-0.1,0.5-0.4v-0.5c0-0.3-0.2-0.4-0.5-0.4h-1.8
		c-0.5,0-0.8-0.1-1.1-0.4c-0.3-0.3-0.4-0.6-0.4-0.9v-0.6c0-0.4,0.1-0.7,0.4-0.9c0.3-0.3,0.6-0.4,1-0.4h3.5v1h-3.2
		c-0.1,0-0.3,0-0.4,0.1c-0.1,0.1-0.1,0.2-0.1,0.3V36c0,0.1,0,0.1,0.1,0.2c0.1,0.1,0.3,0.1,0.5,0.1h1.8c0.4,0,0.8,0.1,1.1,0.4
		c0.2,0.3,0.4,0.5,0.4,0.8v0.7c0,0.4-0.1,0.7-0.4,1c-0.3,0.2-0.6,0.4-1.1,0.4H272.8z"/>
	<path id="XMLID_250_" class="st0" d="M289.8,38.6v1.1h-0.3c-0.3,0-0.5-0.1-0.7-0.3c-0.1,0-0.1,0.1-0.1,0.1
		c-0.2,0.1-0.4,0.2-0.6,0.2h-2.9c-0.2,0-0.4-0.1-0.6-0.2c-0.4-0.2-0.6-0.6-0.6-1.1v-2.7c0-0.5,0.1-0.8,0.4-1.1
		c0.3-0.3,0.6-0.4,0.9-0.4h2.7c0.4,0,0.8,0.1,1,0.4c0.3,0.3,0.4,0.6,0.4,0.9v2.7C289.3,38.4,289.5,38.6,289.8,38.6z M285.5,38.6h2.2
		c0.3,0,0.5-0.2,0.5-0.5v-2.6c0-0.1,0-0.2-0.1-0.3c-0.1-0.1-0.2-0.1-0.5-0.1h-1.9c-0.3,0-0.4,0-0.5,0.1c-0.1,0.1-0.1,0.2-0.1,0.3
		v2.6C285,38.5,285.2,38.6,285.5,38.6z"/>
	<path id="XMLID_253_" class="st0" d="M290.3,39.6v-4c0-0.4,0.1-0.8,0.4-1c0.3-0.3,0.6-0.4,0.9-0.4h2.3c0.5,0,0.8,0.1,1.1,0.4
		c0.3,0.3,0.4,0.6,0.4,1v4.1h-1.1v-3.9c0-0.2,0-0.3-0.1-0.4c-0.1-0.1-0.2-0.1-0.4-0.1h-1.6c-0.3,0-0.5,0.1-0.6,0.2
		c-0.1,0.1-0.1,0.2-0.1,0.4v3.9H290.3z"/>
	<path id="XMLID_255_" class="st0" d="M300.3,34.1v-2.7h1.1v6.7c0,0.4-0.1,0.7-0.2,0.9c-0.3,0.4-0.7,0.6-1.3,0.6h-2.6
		c-0.4,0-0.7-0.1-1-0.4c-0.3-0.3-0.4-0.6-0.4-1v-2.9c0-0.4,0.1-0.7,0.4-0.9c0.3-0.3,0.6-0.4,1-0.4H300.3z M297.6,38.6h2.1
		c0.2,0,0.4,0,0.4-0.1c0.1-0.1,0.1-0.2,0.1-0.4v-2.5c0-0.3-0.2-0.5-0.5-0.5h-2.2c-0.2,0-0.3,0-0.4,0.1c-0.1,0.1-0.1,0.2-0.1,0.3v2.5
		c0,0.2,0,0.3,0.1,0.4c0.1,0.1,0.2,0.1,0.2,0.1C297.5,38.6,297.5,38.6,297.6,38.6z"/>
	<path id="XMLID_258_" class="st0" d="M307.5,39.6v-1h3.3c0.3,0,0.5-0.1,0.5-0.4v-0.5c0-0.3-0.2-0.4-0.5-0.4H309
		c-0.5,0-0.8-0.1-1.1-0.4c-0.3-0.3-0.4-0.6-0.4-0.9v-0.6c0-0.4,0.1-0.7,0.4-0.9c0.3-0.3,0.6-0.4,1-0.4h3.5v1h-3.2
		c-0.1,0-0.3,0-0.4,0.1c-0.1,0.1-0.1,0.2-0.1,0.3V36c0,0.1,0,0.1,0.1,0.2c0.1,0.1,0.3,0.1,0.5,0.1h1.8c0.4,0,0.8,0.1,1.1,0.4
		c0.2,0.3,0.4,0.5,0.4,0.8v0.7c0,0.4-0.1,0.7-0.4,1c-0.3,0.2-0.6,0.4-1.1,0.4H307.5z"/>
	<path id="XMLID_260_" class="st0" d="M314.3,32.7h1.1v1.6h1.9v1h-1.9v2.8c0,0.2,0.1,0.4,0.2,0.4c0.1,0.1,0.3,0.1,0.6,0.1h1.1v1
		h-1.4c-0.5,0-0.8-0.1-1-0.2c-0.5-0.3-0.7-0.7-0.7-1.3v-2.9H313v-1h1.3V32.7z"/>
	<path id="XMLID_262_" class="st0" d="M323,34.2v4c0,0.4-0.1,0.7-0.3,1c-0.2,0.3-0.6,0.4-1,0.4h-2.5c-0.4,0-0.8-0.1-1-0.4
		c-0.2-0.3-0.3-0.6-0.3-1v-4h1.1v3.9c0,0.4,0.2,0.5,0.5,0.5h1.8c0.4,0,0.6-0.2,0.6-0.6v-3.9H323z"/>
	<path id="XMLID_264_" class="st0" d="M327.9,34.1v-2.7h1.1v6.7c0,0.4-0.1,0.7-0.2,0.9c-0.3,0.4-0.7,0.6-1.3,0.6h-2.6
		c-0.4,0-0.7-0.1-1-0.4c-0.3-0.3-0.4-0.6-0.4-1v-2.9c0-0.4,0.1-0.7,0.4-0.9c0.3-0.3,0.6-0.4,1-0.4H327.9z M325.2,38.6h2.1
		c0.2,0,0.4,0,0.4-0.1c0.1-0.1,0.1-0.2,0.1-0.4v-2.5c0-0.3-0.2-0.5-0.5-0.5h-2.2c-0.2,0-0.3,0-0.4,0.1c-0.1,0.1-0.1,0.2-0.1,0.3v2.5
		c0,0.2,0,0.3,0.1,0.4c0.1,0.1,0.2,0.1,0.2,0.1C325.1,38.6,325.1,38.6,325.2,38.6z"/>
	<path id="XMLID_267_" class="st0" d="M330.7,37.4v0.7c0,0.2,0,0.3,0.1,0.4c0.1,0.1,0.3,0.1,0.6,0.1h3.5v1h-3.8
		c-0.4,0-0.8-0.1-0.9-0.2c-0.4-0.3-0.6-0.7-0.6-1.1v-2.8c0-0.5,0.1-0.9,0.4-1.1c0.3-0.2,0.7-0.3,1.2-0.3h2.4c0.5,0,0.9,0.1,1.2,0.4
		c0.2,0.2,0.3,0.5,0.3,0.9v0.7c0,0.3-0.1,0.6-0.3,0.9c-0.2,0.3-0.5,0.4-0.9,0.4H330.7z M330.7,36.4h2.7c0.4,0,0.6-0.2,0.6-0.5v-0.2
		c0-0.2,0-0.3-0.1-0.4c-0.1-0.1-0.2-0.1-0.4-0.1h-2.1c-0.2,0-0.3,0-0.4,0c-0.1,0.1-0.2,0.2-0.2,0.4V36.4z"/>
	<path id="XMLID_270_" class="st0" d="M335.7,39.6v-4c0-0.4,0.1-0.8,0.4-1c0.3-0.3,0.6-0.4,0.9-0.4h2.3c0.5,0,0.8,0.1,1.1,0.4
		c0.3,0.3,0.4,0.6,0.4,1v4.1h-1.1v-3.9c0-0.2,0-0.3-0.1-0.4c-0.1-0.1-0.2-0.1-0.4-0.1h-1.6c-0.3,0-0.5,0.1-0.6,0.2
		c-0.1,0.1-0.1,0.2-0.1,0.4v3.9H335.7z"/>
	<path id="XMLID_272_" class="st0" d="M342.6,32.7h1.1v1.6h1.9v1h-1.9v2.8c0,0.2,0.1,0.4,0.2,0.4c0.1,0.1,0.3,0.1,0.6,0.1h1.1v1
		h-1.4c-0.5,0-0.8-0.1-1-0.2c-0.5-0.3-0.7-0.7-0.7-1.3v-2.9h-1.3v-1h1.3V32.7z"/>
	<path id="XMLID_274_" class="st0" d="M346.2,39.6v-1h3.3c0.3,0,0.5-0.1,0.5-0.4v-0.5c0-0.3-0.2-0.4-0.5-0.4h-1.8
		c-0.5,0-0.8-0.1-1.1-0.4c-0.3-0.3-0.4-0.6-0.4-0.9v-0.6c0-0.4,0.1-0.7,0.4-0.9c0.3-0.3,0.6-0.4,1-0.4h3.5v1h-3.2
		c-0.1,0-0.3,0-0.4,0.1c-0.1,0.1-0.1,0.2-0.1,0.3V36c0,0.1,0,0.1,0.1,0.2c0.1,0.1,0.3,0.1,0.5,0.1h1.8c0.4,0,0.8,0.1,1.1,0.4
		c0.2,0.3,0.4,0.5,0.4,0.8v0.7c0,0.4-0.1,0.7-0.4,1c-0.3,0.2-0.6,0.4-1.1,0.4H346.2z"/>
</g>
</svg>
