<?xml version="1.0" encoding="utf-8"?>
<!-- Generator: Adobe Illustrator 19.0.0, SVG Export Plug-In . SVG Version: 6.00 Build 0)  -->
<svg version="1.1" id="logo_img" xmlns="http://www.w3.org/2000/svg" xmlns:xlink="http://www.w3.org/1999/xlink" x="0px" y="0px"
	 viewBox="0 0 705.8 192.7" style="enable-background:new 0 0 705.8 192.7;" xml:space="preserve">
<style type="text/css">
	
	/* *{fill:url(#SVGID_1_);stroke:#FFFFFF;stroke-width:0.25;stroke-miterlimit:1;}*/
	.st0{fill:url(#SVGID_2_);}
	.st1{fill:url(#SVGID_3_);}
</style>
<linearGradient id="SVGID_1_" gradientUnits="userSpaceOnUse" x1="-53.7033" y1="423.6355" x2="-52.9962" y2="422.9283">
	<stop  offset="0" style="stop-color:#1DAB4A"/>
	<stop  offset="0.9831" style="stop-color:#173519"/>
</linearGradient>
<g>
	<radialGradient id="SVGID_2_" cx="107.0499" cy="16.1512" r="194.7261" gradientUnits="userSpaceOnUse">
		<stop  offset="0" style="stop-color:#FF0000"/>
		<stop  offset="1" style="stop-color:#750000"/>
	</radialGradient>
	<path class="st0" d="M150.3,55.3C118.2,30.5,73.6,36.4,38,40.4C15.3,60.7,0.9,86.6,0,113.1c-0.5,15.3,3.7,29.2,11.5,40.8
		c41.2-3.6,87.4-11.6,125.4-38.7C159.4,99.2,174.9,74.2,150.3,55.3z M130.6,92.1c-5.7,16.5-22.1,24.8-33.9,28.9
		c5.2-3.3,13.8-5.5,16.1-10.1c-10.4,6.6-22.4,11.6-33.8,14.8c-9.5,2.7-18.9,5.2-27.4,3.8c2.7,0.1,5.4-0.3,8.1-1.2
		c-4.2-1.3,2.3-1,1.6-2.4c-2-0.3-4,1.2-6,0.4c6.8-2.4,15.9-2.8,21.2-7.2c-14.2,3.9-28.3,8.3-42.7,7.5c0.9-1,4-0.1,3.4-1.7
		c-8.3,0-18.8,2.4-25.8,0.2c25.4-1.6,56.7-4.3,81.7-22.1c12.3-8.8,20.8-22.4,7.3-32.8c-20.2-15.6-49.6-9-69.9-7.3
		c20.3-6.1,40.6-11.3,61.2-9.7h0c0,0,8.6,0.4,17.7,3.2c3.6,1.1,7.3,2.7,10.6,4.7c0.6,0.4,1.2,0.8,1.8,1.3c0.1,0.1,0.2,0.1,0.2,0.2
		c0.1,0.1,0.2,0.2,0.3,0.3v0C129.2,68,135.7,77.2,130.6,92.1z"/>
	<radialGradient id="SVGID_3_" cx="107.0483" cy="16.1576" r="194.7184" gradientUnits="userSpaceOnUse">
		<stop  offset="0" style="stop-color:#FF0000"/>
		<stop  offset="1" style="stop-color:#750000"/>
	</radialGradient>
	<path class="st1" d="M137.1,0.1c-4.7,0.2-9.5,0.6-14.4,1.3c-6.9,1-13.6,2.4-20.2,4.2c-22.3,6.1-42.6,16.7-59.2,30.2
		c30.2-8.3,60.5-14.1,91.1-11.6h0c0,0,15.7,0.7,32.3,5.9c6.6,2.1,13.4,4.9,19.4,8.7c1.2,0.7,2.3,1.5,3.4,2.3
		c0.2,0.1,0.3,0.2,0.5,0.3c0.2,0.2,0.4,0.3,0.6,0.5l0,0c12.6,9.6,24.4,26.4,15,53.5c-10.5,30.1-40.4,45.4-62,52.8
		c9.4-6.1,25.3-10,29.4-18.4c-19,12-40.9,21.1-61.8,27.1c-17.4,4.9-34.6,9.6-50,7c5,0.2,9.9-0.5,14.8-2.2c-7.7-2.3,4.3-1.9,3-4.4
		c-3.7-0.5-7.2,2.3-11,0.7c12.4-4.4,29.1-5.1,38.8-13.2c-25.9,7.1-51.8,15.1-78.1,13.8c1.6-1.8,7.2-0.3,6.2-3.2
		c-6.6,0-14,0.8-21.3,1.4c19.5,26.4,58.2,40.8,103.4,34.4C183,182,237.9,132,239.5,79.6C241,31.1,196.3-2.5,137.1,0.1z"/>
</g>
<path d="M645,130.2"/>
<g>
	<path d="M264.4,72.8v-7.6c3.3-0.1,5.2-0.4,5.9-0.8c0.9-0.5,2.3-3.1,4.4-7.8c1.3-2.9,2.4-4.9,3.3-5.8c1.3-1.3,3.3-2,5.8-2h14.9
		c2.1,0,3.9,0.6,5.2,1.9c1.1,1.1,2.3,3.1,3.5,5.9c1.9,4.6,3.3,7.1,4.3,7.7c0.8,0.5,2.8,0.8,6,0.9v7.6c-5.3,0-8.9-0.7-10.6-1.9
		c-1.1-0.8-2.2-2.2-3.3-4.3c-0.3-0.5-1.3-2.6-3-6.2c-0.6-1.2-1.1-2-1.5-2.5c-0.7-0.6-1.7-0.9-3.1-0.9h-10.7c-1.4,0-2.4,0.4-3,1.2
		c-0.4,0.5-1.5,2.5-3.1,6c-1.6,3.4-3.1,5.6-4.4,6.5C273.1,72.1,269.6,72.7,264.4,72.8z M286.9,105.1v-7h16.6c3,0,4.6-1.3,4.6-4v-9.2
		c0-2-1.1-3-3.3-3h-25.1c-1.8,0-3,0.3-3.6,0.9c-0.8,0.8-1.1,1.9-1.1,3.4v23.2c0,4.1,1.7,6.2,5.2,6.2h36.5v7.5h-38.3
		c-3.5,0-6.3-1.2-8.7-3.5c-2-2-3-4.6-3-7.6V83.5c0-3,0.9-5.3,2.6-7.2c1.6-1.6,3.9-2.4,6.9-2.4h30.4c3,0,5.3,0.9,7.1,2.7
		c1.4,1.4,2.1,3.2,2.1,5.4v14.9c0,1.8-0.8,3.5-2.3,5.1c-2,2.1-4.9,3.1-8.7,3.1H286.9z M322.3,123.3v-8.2h9.9c1.5,0,2.7-0.5,3.6-1.4
		c0.8-0.8,1.2-1.9,1.2-3.1V48.7h8.3v63.2c0,3.3-1.1,6-3.3,8.2c-2.2,2.1-5.1,3.2-8.7,3.2H322.3z M322.3,110.3V52h8.1v58.3H322.3z"/>
	<path d="M354.3,66.5v-4c0-1.1,0.4-2.4,1.3-4c2.1-4,5.4-6,10-6H391v-3.8h8.2v3.8h22.6c4.6,0,8,0.9,10.2,2.8c2.3,2,3.5,4.3,3.5,6.9
		v4.3h-8v-1.6c0-1.3-0.6-2.3-1.8-3.1c-1.1-0.8-2.8-1.2-5.1-1.2h-53.7c-3,0-4.5,2-4.6,5.9H354.3z M354.3,95.9v-7.2c1.6,0,3,0,4.4,0
		l5,0c4.8,0,8.5-0.3,11.3-1l7.5-1.7l-16.7-4.9c-0.6-0.2-0.9-0.3-0.9-0.3c-0.4,0-1.4,0.5-3.1,1.5c-0.9,0.5-3.2,1.1-6.9,1.7v-8.2
		c3.1-0.6,5.6-1.7,7.4-3.3c1.3-1.1,2.3-2.3,2.9-3.5c0.6-1.1,1.2-2.7,1.8-4.7h8.4l-0.8,3h44.8c4.7,0,8,0.6,10,1.9
		c2.2,1.3,3.3,3.2,3.3,5.6c0,2.4-1.3,4.7-4,6.7c-1.4,1.1-4.7,2.3-9.9,3.5l-4.2,0.9c-1,0.2-2,0.5-3,0.7c3.5,1,7,1.5,10.4,1.7
		c2.7,0.1,7.3,0.2,13.9,0.3v7.2c-1.4,0-2.4,0-2.9,0c-9.6,0-16.7-0.6-21.4-1.8l-14.9-4l-17.1,4c-5.4,1.3-11.5,1.9-18.2,1.9
		C360.4,95.9,358.1,95.9,354.3,95.9z M357.2,115.7v-11c0-1.8,0.7-3.5,2.2-5c1.4-1.4,3.3-2.1,5.7-2.1l58.2,0c6.3,0,9.5,2.5,9.5,7.6
		v11.3c0,2-0.7,3.6-2,5c-1.5,1.5-3.8,2.2-7.1,2.2h-56.3c-3.3,0-5.5-0.4-6.5-1.1C358.4,121,357.2,118.7,357.2,115.7z M369.9,115.4
		h49.9c2,0,3.1-0.1,3.5-0.3c0.9-0.5,1.4-1.3,1.4-2.4v-4.4c0-1.9-1-2.8-2.9-2.8h-53.6c-0.8,0-1.5,0.3-2,0.9c-0.6,0.6-0.9,1.4-0.9,2.4
		v4c0,1.1,0.5,1.8,1.4,2.3C367,115.3,368.1,115.4,369.9,115.4z M370.9,75.5l26,7.3l23.2-5.8c0.8-0.2,1.2-0.5,1.2-0.9
		c0-0.4-0.4-0.5-1.2-0.5H370.9z"/>
	<path d="M444.9,81.7V70.2c4.5-4.5,7.8-11.7,9.8-21.4h9.1l-0.9,4.3h21.7v-4.3h8.1V53h29.6v7.6h-29.6V64h29.6v7.6h-29.6v2.9h29.6v7.6
		h-29.6v3.7h29.8V94h-32.8v4h34.8v8.3h-4.7c0.1,1,0.1,1.8,0.2,2.3c0.2,2.8,0.7,4.7,1.6,5.8c0.6,0.6,1.6,1.1,3.1,1.5v8
		c-5.2-0.4-8.9-2.6-10.9-6.6c-1-1.9-1.5-4.1-1.7-6.6c-0.1-1.8-0.3-3.3-0.4-4.4h-21.9v17.4h-8.1v-17.4h-21.6c-0.3,3.8-0.7,6.4-1,8
		c-0.8,3.5-2.8,6.1-5.9,7.9c-1.6,0.9-3.6,1.4-6,1.6v-8.1c1.9-0.1,3.2-1,3.9-2.9c0.4-1.1,0.7-3.3,1-6.5h-5.4V98h35.1v-4h-23.5
		c-2.4,0-4.3-0.7-5.7-2c-1.2-1.1-1.9-2.4-2.1-3.9c-0.1-0.9-0.2-2-0.2-3.4v-6.7C448.5,79.3,446.8,80.5,444.9,81.7z M459.2,64h25.4
		v-3.4h-24.1L459.2,64z M484.6,85.8v-3.7h-25.2l0,1c0,0.6,0.2,1.3,0.6,1.9c0.4,0.6,1.5,0.8,3.3,0.8H484.6z M459.4,74.5h25.2v-2.9
		h-25.2V74.5z"/>
	<path d="M546.9,49h9.6l-13,23.9h5.4l2-3.3h9.8l-16.6,29.4h15.4v8.1H542c-3.1,0-5.1-0.4-6.2-1.2c-1.2-1-1.8-2.3-1.8-3.9
		c0-1.9,1.2-5,3.7-9.4l6.5-11.6h-5.1c-1.8,0-3.1-0.5-4.2-1.5c-1-0.9-1.5-2.1-1.5-3.4c0-1.9,0.8-4.3,2.4-7.2L546.9,49z M534.4,122.9
		v-8.1h25.9v8.1H534.4z M563.7,63.1V55h21.8v-6.1h8.1V55h21.7v8.1h-21.7v11.3h20.8v8.1h-49.9v-8.1h21V63.1H563.7z M572.7,87.8h34.5
		c2.3,0,4.2,0.7,5.8,2s2.4,3.3,2.4,5.8v19.6c0,2.5-0.7,4.5-2.1,5.9c-1.5,1.5-3.4,2.2-5.8,2.2l-34.9,0c-2.1,0-3.9-0.7-5.3-2.2
		c-1.4-1.5-2.2-3.2-2.2-5.1V94.7c0-1.6,0.7-3.1,2.2-4.7C568.6,88.6,570.4,87.8,572.7,87.8z M607.4,112.1V99c0-2-1.2-3-3.6-3h-26.9
		l-1.3,0c-0.6,0-1.1,0.2-1.6,0.7c-0.6,0.6-0.9,1.4-0.9,2.5v13.1c0,2,0.8,3,2.6,3h27.8c1.3,0,2.3-0.2,2.8-0.6
		C607.1,114.1,607.4,113.3,607.4,112.1z"/>
	<path d="M624.1,88.6v-8.1h81.2v8.1h-61.9l-3.6,5.8c-0.4,0.8-0.7,1.4-0.7,1.9c0,0.8,0.5,1.2,1.5,1.2h52.8c4.2,0,7,1.2,8.4,3.6
		c0.7,1.1,1.1,2.8,1.1,5v9.8c0,5.2-3.1,7.9-9.2,7.9h-62.1v-8.3h59.7c1.5,0,2.4-0.2,2.8-0.5c0.5-0.4,0.8-1.2,0.8-2.2v-4.3
		c0-1-0.2-1.7-0.7-2.2c-0.4-0.4-1.4-0.7-3-0.7h-51.6c-3.2,0-5.7-0.9-7.6-2.7c-1.2-1.2-1.8-2.5-1.8-4.1c0-1.2,0.4-2.5,1.1-4l3.4-6.4
		H624.1z M634.4,49.3h59.7c3.4,0,5.7,0.6,7,1.9c1.6,1.6,2.4,3.8,2.4,6.7v9.9c0,5.6-3.1,8.4-9.2,8.4H635c-6.1,0-9.2-2.6-9.2-7.8V57.3
		c0-2.4,0.7-4.4,2.2-5.9C629.4,50,631.5,49.3,634.4,49.3z M637.1,68h55c1.3,0,2.1-0.2,2.5-0.7c0.4-0.4,0.7-1.1,0.7-1.9v-5.1
		c0-1-0.2-1.7-0.6-2.2c-0.5-0.5-1.5-0.7-3-0.7h-55.2c-1.7,0-2.5,0.8-2.5,2.5v5.2c0,0.9,0.1,1.6,0.4,2C634.9,67.7,635.8,68,637.1,68z
		"/>
</g>
<rect x="265.4" y="148.4" width="85" height="1.4"/>
<g>
	<path d="M373.5,139.4v2.4h-9c-0.6,0-1.1,0.1-1.3,0.3c-0.3,0.3-0.4,0.6-0.4,1v1.4c0,0.4,0.2,0.7,0.5,1c0.3,0.3,0.7,0.4,1.1,0.4h6.4
		c1,0,1.7,0.3,2.3,0.9c0.6,0.6,0.9,1.5,0.9,2.7v2.8c0,1.1-0.3,2-0.9,2.6c-0.7,0.7-1.5,1-2.6,1h-10.2v-2.4h9.6c0.5,0,0.8-0.1,1.1-0.4
		c0.2-0.2,0.3-0.7,0.3-1.4v-2.2c0-0.3-0.2-0.7-0.5-0.9c-0.2-0.2-0.6-0.3-1-0.3h-6.8c-0.9,0-1.6-0.3-2.1-0.8c-0.4-0.4-0.7-1.1-0.7-2
		v-2.8c0-1,0.1-1.6,0.4-2c0.7-0.9,1.6-1.4,2.7-1.4H373.5z"/>
	<path d="M377.4,156.1v-16.6h2.3v5.5h6.1c0.9,0,1.6,0.3,2.1,0.8c0.5,0.5,0.7,1.2,0.7,1.9v8.4h-2.3v-7.9c0-0.4-0.1-0.7-0.2-0.8
		c-0.2-0.2-0.5-0.3-0.9-0.3h-4.5c-0.7,0-1,0.3-1,0.9v8.1H377.4z"/>
	<path d="M392,153.1v-5.4c0-0.7,0.3-1.3,0.8-1.9c0.5-0.5,1.3-0.7,2.3-0.7h4.1c1,0,1.8,0.2,2.3,0.7c0.6,0.5,0.8,1.1,0.8,1.9v5.4
		c0,0.9-0.3,1.6-0.9,2.2c-0.5,0.5-1.2,0.7-2.3,0.7h-4.1c-1,0-1.8-0.2-2.3-0.7C392.3,154.7,392,154,392,153.1z M394.3,148.4v4.4
		c0,0.8,0.4,1.2,1.1,1.2h3.5c0.7,0,1.1-0.4,1.1-1.2v-4.4c0-0.8-0.4-1.3-1.2-1.3h-3.2c-0.4,0-0.7,0.1-0.9,0.3
		C394.4,147.6,394.3,147.9,394.3,148.4z"/>
	<path d="M408,145.1l2.3,7.8c0.2,0.7,0.5,1.1,0.7,1.1c0.3,0,0.6-0.3,0.8-0.8l0.7-1.7l-1.8-6.3h2.2l1.9,6.6c0.3,1,0.5,1.7,0.7,1.9
		c0.1,0.1,0.2,0.2,0.4,0.2c0.4,0,0.7-0.4,1-1.2l2.2-7.5h2.3l-2.1,7.2c-0.4,1.2-0.6,2-0.7,2.2c-0.5,1.1-1.4,1.6-2.6,1.6
		c-0.7,0-1.2-0.2-1.6-0.5c-0.2-0.2-0.4-0.4-0.7-0.8c-0.3,0.5-0.7,0.8-1.1,1c-0.4,0.2-0.8,0.3-1.3,0.3c-0.8,0-1.4-0.2-1.9-0.7
		c-0.4-0.4-0.8-0.9-0.9-1.5l-2.6-8.8H408z"/>
	<path d="M430.7,139.5h2.7l2.9,6.1c0.2,0.5,0.5,0.8,0.9,1c0.3,0.2,0.6,0.3,0.9,0.3c0.3,0,0.6-0.1,0.9-0.3c0.3-0.2,0.5-0.5,0.7-0.8
		l2.9-6.4h2.7l-3.3,7.5c-0.4,1-0.9,1.6-1.5,2c-0.3,0.2-0.7,0.4-1.3,0.6v6.6h-2.7v-6.6c-1.1-0.5-1.8-1.1-2.1-1.9L430.7,139.5z"/>
	<path d="M448.7,153.1v-5.4c0-0.7,0.3-1.3,0.8-1.9c0.5-0.5,1.3-0.7,2.3-0.7h4.1c1,0,1.8,0.2,2.3,0.7c0.6,0.5,0.8,1.1,0.8,1.9v5.4
		c0,0.9-0.3,1.6-0.9,2.2c-0.5,0.5-1.2,0.7-2.3,0.7h-4.1c-1,0-1.8-0.2-2.3-0.7C449,154.7,448.7,154,448.7,153.1z M451,148.4v4.4
		c0,0.8,0.4,1.2,1.1,1.2h3.5c0.7,0,1.1-0.4,1.1-1.2v-4.4c0-0.8-0.4-1.3-1.2-1.3h-3.2c-0.4,0-0.7,0.1-0.9,0.3
		C451.1,147.6,451,147.9,451,148.4z"/>
	<path d="M472.7,145v8.1c0,0.8-0.2,1.5-0.6,2c-0.5,0.6-1.2,0.9-2,0.9H465c-0.9,0-1.5-0.3-2-0.9c-0.4-0.5-0.6-1.2-0.6-2V145h2.3v7.9
		c0,0.7,0.3,1.1,0.9,1.1h3.6c0.8,0,1.1-0.4,1.1-1.2V145H472.7z"/>
	<path d="M476.1,156.2v-11.3h2.3v1.6c0.8-0.1,1.4-0.2,1.7-0.4c0.3-0.2,0.6-0.6,0.8-1.1h2.3c-0.3,1-0.8,1.9-1.5,2.6
		c-0.5,0.5-1.1,0.8-1.8,0.9c-0.3,0.1-0.8,0.1-1.4,0.2v7.6H476.1z"/>
	<path d="M491.7,139.5h2.6l3,12.1c0.2,0.8,0.4,1.3,0.6,1.5c0.2,0.2,0.5,0.3,0.8,0.3c0.2,0,0.5-0.1,0.7-0.2c0.2-0.2,0.4-0.4,0.4-0.5
		l1.4-4l-2.4-9.2h2.6l3.2,12c0.2,0.9,0.4,1.4,0.6,1.6c0.1,0.1,0.2,0.1,0.4,0.1s0.3,0,0.4-0.1c0.2-0.1,0.3-0.5,0.5-1.1l3.2-12.5
		l2.6,0l-3.5,13.7c-0.5,2-1.5,3-3,3c-0.6,0-1.1-0.2-1.5-0.5c-0.5-0.4-0.9-0.9-1.2-1.6c-0.1-0.3-0.4-0.9-0.7-1.7
		c-0.3,0.9-0.7,1.7-1.1,2.4c-0.5,0.9-1.4,1.3-2.7,1.3c-1,0-1.8-0.4-2.5-1.1c-0.5-0.5-0.9-1.6-1.3-3.3L491.7,139.5z"/>
	<path d="M515.4,153.1v-5.4c0-0.7,0.3-1.3,0.8-1.9c0.5-0.5,1.3-0.7,2.3-0.7h4.1c1,0,1.8,0.2,2.3,0.7c0.6,0.5,0.8,1.1,0.8,1.9v5.4
		c0,0.9-0.3,1.6-0.9,2.2c-0.5,0.5-1.2,0.7-2.3,0.7h-4.1c-1,0-1.8-0.2-2.3-0.7C515.7,154.7,515.4,154,515.4,153.1z M517.7,148.4v4.4
		c0,0.8,0.4,1.2,1.1,1.2h3.5c0.7,0,1.1-0.4,1.1-1.2v-4.4c0-0.8-0.4-1.3-1.2-1.3h-3.2c-0.4,0-0.7,0.1-0.9,0.3
		C517.8,147.6,517.7,147.9,517.7,148.4z"/>
	<path d="M529.1,156v-8.2c0-0.9,0.3-1.5,0.8-2c0.5-0.5,1.2-0.8,1.9-0.8h4.6c1,0,1.7,0.3,2.3,0.8c0.5,0.5,0.8,1.2,0.8,1.9v8.3h-2.3
		v-7.8c0-0.4-0.1-0.7-0.2-0.8c-0.2-0.2-0.5-0.3-0.9-0.3h-3.2c-0.6,0-1,0.1-1.2,0.3c-0.1,0.2-0.2,0.4-0.2,0.8v7.8H529.1z"/>
	<path d="M551.4,145v-5.5h2.3V153c0,0.9-0.1,1.5-0.4,1.9c-0.5,0.8-1.4,1.2-2.5,1.2h-5.3c-0.8,0-1.5-0.2-2-0.7
		c-0.5-0.5-0.8-1.2-0.8-2v-5.8c0-0.7,0.3-1.4,0.8-1.9c0.5-0.5,1.2-0.8,1.9-0.8H551.4z M546,154h4.3c0.4,0,0.7-0.1,0.9-0.3
		c0.2-0.2,0.2-0.5,0.2-0.9v-5c0-0.6-0.3-0.9-1-0.9H546c-0.4,0-0.6,0.1-0.8,0.3c-0.2,0.2-0.3,0.4-0.3,0.7v5c0,0.4,0.1,0.7,0.2,0.8
		c0.2,0.2,0.3,0.3,0.5,0.3C545.7,154,545.8,154,546,154z"/>
	<path d="M559.4,151.6v1.4c0,0.4,0.1,0.7,0.2,0.8c0.2,0.2,0.5,0.2,1.1,0.2h7.2v2.1h-7.8c-0.9,0-1.5-0.1-1.9-0.4
		c-0.8-0.6-1.2-1.3-1.2-2.3v-5.7c0-1,0.3-1.7,0.8-2.2c0.5-0.4,1.3-0.7,2.4-0.7h4.9c1,0,1.8,0.3,2.5,0.9c0.5,0.4,0.7,1,0.7,1.8v1.4
		c0,0.7-0.2,1.3-0.7,1.8c-0.4,0.5-1.1,0.8-1.8,0.8H559.4z M559.4,149.5h5.4c0.8,0,1.2-0.3,1.2-1V148c0-0.4-0.1-0.7-0.3-0.8
		c-0.2-0.2-0.5-0.2-0.8-0.2h-4.3c-0.4,0-0.6,0-0.7,0.1c-0.3,0.1-0.4,0.4-0.4,0.8V149.5z"/>
	<path d="M571.5,156.2v-11.3h2.3v1.6c0.8-0.1,1.4-0.2,1.7-0.4c0.3-0.2,0.6-0.6,0.8-1.1h2.3c-0.3,1-0.8,1.9-1.5,2.6
		c-0.5,0.5-1.1,0.8-1.8,0.9c-0.3,0.1-0.8,0.1-1.4,0.2v7.6H571.5z"/>
	<path d="M581.7,147.1V145h1.7v-2.9c0-0.8,0.3-1.5,0.8-2c0.5-0.5,1.2-0.8,1.9-0.8h3.3v2.1h-2.8c-0.6,0-0.9,0.3-0.9,0.9v2.6h3.7v2.1
		h-3.7v9.1h-2.3v-9.1H581.7z"/>
	<path d="M603.1,145v8.1c0,0.8-0.2,1.5-0.6,2c-0.5,0.6-1.2,0.9-2,0.9h-5.1c-0.9,0-1.5-0.3-2-0.9c-0.4-0.5-0.6-1.2-0.6-2V145h2.3v7.9
		c0,0.7,0.3,1.1,0.9,1.1h3.6c0.8,0,1.1-0.4,1.1-1.2V145H603.1z"/>
	<path d="M606.9,139.4h2.3V156h-2.3V139.4z"/>
</g>
<rect x="620.7" y="148.4" width="85" height="1.4"/>
</svg>
