<?xml version="1.0" standalone="no"?><!DOCTYPE svg PUBLIC "-//W3C//DTD SVG 1.1//EN" "http://www.w3.org/Graphics/SVG/1.1/DTD/svg11.dtd"><svg t="1498543753676" class="icon" style="" viewBox="0 0 1024 1024" version="1.1" xmlns="http://www.w3.org/2000/svg" p-id="11903" xmlns:xlink="http://www.w3.org/1999/xlink" width="200" height="200"><defs><style type="text/css"></style></defs><path d="M512 524.8m-480 0a480 480 0 1 0 960 0 480 480 0 1 0-960 0Z" fill="#78B1E6" p-id="11904"></path><path d="M761.6 787.2c-6.4-12.8-6.4-19.2-12.8-25.6-25.6-44.8-57.6-76.8-96-102.4-38.4-32-89.6-44.8-140.8-44.8-32 0-64 6.4-89.6 19.2-70.4 32-128 96-153.6 179.2-12.8 32-19.2 64-25.6 102.4 76.8 57.6 166.4 89.6 268.8 89.6 108.8 0 204.8-38.4 288-96-6.4-38.4-19.2-76.8-38.4-121.6 0 6.4 0 6.4 0 0z" fill="#EDF3FF" p-id="11905"></path><path d="M512 396.8m-147.2 0a147.2 147.2 0 1 0 294.4 0 147.2 147.2 0 1 0-294.4 0Z" fill="#EDF3FF" p-id="11906"></path></svg>